<?xml version="1.0" standalone="no"?>
<!DOCTYPE svg PUBLIC "-//W3C//DTD SVG 1.1//EN" "http://www.w3.org/Graphics/SVG/1.1/DTD/svg11.dtd">
<svg xmlns="http://www.w3.org/2000/svg">
<defs >
<font id="Exo2" horiz-adv-x="559" ><font-face
    font-family="Exo 2 Light"
    units-per-em="1000"
    panose-1="0 0 0 0 0 0 0 0 0 0"
    ascent="999"
    descent="-201"
    alphabetic="0" />
<glyph unicode=" " horiz-adv-x="225" />
<glyph unicode="!" horiz-adv-x="266" d="M165 695V377L159 208H108L101 377V695H165ZM142 107Q155 107 161 101T167 82V25Q167 11 161 6T142 0H125Q111 0 106 5T100 25V82Q100 95 105 101T125 107H142Z" />
<glyph unicode="&quot;" horiz-adv-x="344" d="M267 690L263 477H219L214 690H267ZM130 690L125 477H80L76 690H130Z" />
<glyph unicode="#" horiz-adv-x="679" d="M300 690L180 0H128L248 690H300ZM551 690L431 0H379L499 690H551ZM628 499L620 456H92L100 499H628ZM586 262L578 218H50L58 262H586Z" />
<glyph unicode="$" horiz-adv-x="562" d="M280 702Q328 701 378 697T478 684L473 636Q430 639 380 641T282 643Q241 643 212 640T164 626T137 590T128 520Q128 456 150 430T223 393L367 363Q446 347 476 302T507 174Q507 113 493 77T452 21T382 -5T282 -12Q246
-12 193 -9T72 5L77 54Q128 53 162 52T225 50T285 49Q343 50 376 59T425 94T440 175Q440 220 430 245T399 284T343 304L197 335Q123 350 92 395T61 521Q61 582 74 618T114 673T182 696T280 702ZM265 352L302 349L269 -130H232L265 352ZM335 801L306 349L268 352L299
801H335Z" />
<glyph unicode="%" horiz-adv-x="890" d="M208 703Q267 703 301 682T351 616T366 498Q366 426 351 381T302 315T208 293Q150 293 116 314T67 381T52 498Q52 571 66 616T115 682T208 703ZM208 661Q168 661 145 645T112 593T102 498Q102 439 112 403T145 351T208
335Q249 335 272 351T305 403T315 498Q315 557 306 593T273 645T208 661ZM697 690L238 0H191L649 690H697ZM681 400Q740 400 774 379T822 313T837 196Q837 124 823 79T774 13T681 -8Q623 -8 589 13T540 79T525 196Q525 268 539 313T588 379T681 400ZM680 359Q640
359 617 343T585 291T575 196Q575 138 584 102T617 49T680 33Q721 33 744 49T777 101T787 196Q787 255 778 291T745 343T680 359Z" />
<glyph unicode="&amp;" horiz-adv-x="776" d="M351 699Q383 699 424 698T510 690L502 642Q493 643 475 643T434 644T389 645T349 645Q278 645 236 636T176 599T158 513Q158 461 172 433T219 394T307 383H701L699 332H305Q245 332 209 319T156 274T140 184Q140
132 153 102T199 60T285 48Q367 49 421 73T518 151L532 110Q499 66 462 40T379 2T273 -9Q201 -9 157 8T92 65T72 175Q72 254 101 301T207 356V360Q144 366 118 406T92 521Q92 581 107 617T154 670T234 693T351 699ZM569 521V119Q569 82 586 65T639 48H718L725 3Q711
-1 692 -3T656 -7T627 -8Q569 -8 539 20T509 101V362L517 521H569Z" />
<glyph unicode="&apos;" horiz-adv-x="206" d="M130 690L125 477H80L76 690H130Z" />
<glyph unicode="(" horiz-adv-x="358" d="M313 790L322 757Q218 705 170 596T122 313Q122 200 143 113T208 -34T322 -132L313 -165Q182 -110 121 5T59 312Q59 504 120 620T313 790Z" />
<glyph unicode=")" horiz-adv-x="358" d="M44 790Q176 736 237 620T299 312Q299 121 238 6T44 -165L37 -132Q106 -95 149 -35T214 113T235 313Q235 486 188 595T37 757L44 790Z" />
<glyph unicode="*" horiz-adv-x="451" d="M247 691L240 532L338 403L305 380L225 503L146 381L112 404L210 532L205 691H247ZM74 598L194 553L193 535L185 523L60 558L74 598ZM378 597L392 557L266 523L257 535V553L378 597Z" />
<glyph unicode="+" horiz-adv-x="552" d="M491 323V274H60V323H491ZM301 503L300 93H251L250 503H301Z" />
<glyph unicode="," horiz-adv-x="221" d="M121 107Q134 107 139 101T145 82V18Q145 -7 141 -32T131 -81T116 -127L86 -117Q90 -87 92 -62T94 0Q75 0 76 22V82Q76 95 82 101T101 107H121Z" />
<glyph unicode="-" horiz-adv-x="461" d="M384 277V227H77V277H384Z" />
<glyph unicode="." horiz-adv-x="221" d="M121 107Q135 107 140 101T146 82V25Q146 11 141 6T121 0H99Q86 0 80 5T74 25V82Q74 95 80 101T99 107H121Z" />
<glyph unicode="/" horiz-adv-x="509" d="M478 690L85 -64H31L424 690H478Z" />
<glyph unicode="0" horiz-adv-x="596" d="M298 703Q384 703 434 666T506 549T528 345Q528 221 506 142T434 25T298 -13Q213 -13 163 24T91 141T69 345Q69 470 90 549T162 665T298 703ZM298 645Q251 645 220 628T169 575T142 482T133 345Q133 266 141 209T169 115T219
62T298 45Q344 45 376 62T427 115T455 208T463 345Q463 425 455 482T428 575T376 628T298 645Z" />
<glyph unicode="1" horiz-adv-x="391" d="M274 690V0H208V572Q208 586 209 600T212 627L37 571L27 618L208 690H274Z" />
<glyph unicode="2" horiz-adv-x="560" d="M269 702Q334 702 380 692T452 650T477 557Q477 512 464 473T423 392T348 298L138 60Q165 61 195 62T253 63H504V0H57V40Q57 49 59 56T68 70L282 314Q349 389 380 446T410 557Q408 596 391 614T342 638T266 644Q235 644
206 643T145 637T69 625L63 676Q111 687 145 692T209 700T269 702Z" />
<glyph unicode="3" horiz-adv-x="555" d="M254 703Q330 703 376 689T443 639T465 543Q465 500 456 464T424 402T361 369V365Q430 354 456 308T484 192Q485 123 465 78T397 10T269 -13Q215 -13 161 -8T55 5L61 57Q93 54 125 52T189 48T254 46Q314 46 349 60T402
108T419 198Q419 237 408 268T364 319T270 338H141V389L270 390Q314 390 341 403T381 436T398 480T402 530Q401 577 387 601T339 635T247 644Q198 644 153 641T73 635L66 685Q116 694 161 698T254 703Z" />
<glyph unicode="4" horiz-adv-x="608" d="M322 690L117 277Q108 257 117 245T144 233H560V186L466 179H110Q85 179 68 193T46 230T51 275L257 690H322ZM473 559V0H411V444L423 559H473Z" />
<glyph unicode="5" horiz-adv-x="532" d="M452 690L449 634H152L141 418L208 415Q279 411 329 400T411 366T457 304T472 206Q472 164 465 126T434 56T368 7T253 -12Q214 -12 163 -6T57 14L65 66Q112 57 159 52T240 46Q311 46 346 65T395 120T408 206Q409 259 395
289T349 334T268 354T143 362L109 364Q97 366 90 374T83 394L98 690H452Z" />
<glyph unicode="6" horiz-adv-x="569" d="M334 702Q354 702 390 700T466 688L458 640Q437 643 420 644T382 645T334 645Q278 645 240 633T179 588T147 489T137 316Q137 240 141 188T162 104T210 59T298 44Q364 44 395 64T437 124T447 218Q447 282 436 320T393
375T306 393Q271 393 241 385T181 355T113 294L109 328Q142 374 172 400T238 436T322 447Q394 447 435 425T493 353T510 217Q510 165 503 123T473 50T408 4T297 -12Q226 -12 181 4T113 59T80 161T71 319Q71 444 87 520T134 635T216 688T334 702Z" />
<glyph unicode="7" horiz-adv-x="510" d="M428 690Q447 690 457 684T471 666T468 636L249 0H183L386 587Q391 600 395 611T404 634H45L42 690H428Z" />
<glyph unicode="8" horiz-adv-x="608" d="M305 699Q369 699 411 689T476 656T509 600T519 518Q519 472 509 438T478 384T421 360V356Q464 352 488 329T523 267T534 172Q534 108 515 68T447 10T305 -9Q214 -9 164 9T95 68T75 172Q75 228 85 267T121 329T188 356V360Q153
364 131 384T99 438T89 518Q89 565 99 599T133 655T198 688T305 699ZM306 332Q255 332 222 326T171 304T145 259T137 184Q137 134 151 104T201 61T305 48Q373 48 408 61T457 104T471 184Q471 231 464 260T438 304T388 326T306 332ZM305 645Q243 645 210 633T163
591T150 513Q150 460 163 432T210 394T306 384Q371 384 403 394T447 433T459 513Q459 562 447 591T402 632T305 645Z" />
<glyph unicode="9" horiz-adv-x="570" d="M274 702Q348 702 392 685T459 627T488 520T495 353Q495 236 480 164T434 54T353 2T233 -12Q211 -12 174 -10T92 2L100 50Q123 48 140 47T179 46T233 45Q288 45 326 57T387 101T420 195T431 354Q431 437 427 493T409 583T363
631T273 646Q211 646 179 625T134 564T122 467Q122 413 134 375T176 316T261 296Q296 296 325 305T385 335T454 396L458 362Q425 316 395 290T329 254T246 243Q175 243 135 271T77 349T59 468Q59 544 78 596T145 675T274 702Z" />
<glyph unicode=":" horiz-adv-x="225" d="M122 437Q136 437 141 431T147 412V355Q147 341 142 336T122 330H100Q87 330 81 335T75 355V412Q75 425 81 431T100 437H122ZM122 107Q136 107 141 101T147 82V25Q147 11 142 6T122 0H100Q87 0 81 5T75 25V82Q75 95 81
101T100 107H122Z" />
<glyph unicode=";" horiz-adv-x="227" d="M124 437Q138 437 143 431T149 412V355Q149 341 144 336T124 330H102Q89 330 83 335T77 355V412Q77 425 83 431T102 437H124ZM124 107Q137 107 142 101T148 82V18Q148 -7 144 -32T134 -81T119 -127L89 -117Q93 -87 95
-62T97 0Q78 0 79 22V82Q79 95 85 101T104 107H124Z" />
<glyph unicode="&lt;" horiz-adv-x="534" d="M459 500V448L114 297L459 150V98L57 271V323L459 500Z" />
<glyph unicode="=" horiz-adv-x="586" d="M509 422V373H78V422H509ZM509 210V161H78V210H509Z" />
<glyph unicode="&gt;" horiz-adv-x="534" d="M75 500L477 323V271L75 98V150L420 297L75 448V500Z" />
<glyph unicode="?" horiz-adv-x="506" d="M258 712Q357 712 407 675T457 557Q457 512 439 479T394 419T339 363T293 298T273 208H217Q216 264 233 304T276 374T328 430T372 483T390 547Q392 604 357 631T246 658Q197 658 166 657T109 653T49 646L44 692Q69 697
89 700T132 706T184 710T258 712ZM254 107Q267 107 272 101T278 82V25Q278 11 273 6T254 0H235Q222 0 217 5T211 25V82Q211 95 216 101T235 107H254Z" />
<glyph unicode="@" horiz-adv-x="709" d="M489 579Q557 579 595 549T633 445V131H585L578 208Q560 190 527 171T452 138T368 124Q329 124 300 137T255 175T239 238V290Q239 338 268 364T354 391H573V444Q573 484 554 504T479 525H347Q279 525 239 519T177 488T150
411T143 266Q143 189 147 140T165 62T203 20T271 4T377 0H629V-48Q566 -51 504 -52T378 -54Q298 -55 245 -49T159 -25T110 28T88 122T82 265Q82 348 86 404T106 494T150 547T227 571T347 579H489ZM573 352L373 348Q335 347 318 331T300 284V248Q300 211 319 194T377
176Q409 176 445 185T514 210T573 248V352Z" />
<glyph unicode="A" horiz-adv-x="615" d="M345 690Q354 690 361 685T371 671L602 0H534L340 582Q336 596 331 610T322 638H293Q289 625 285 611T275 582L81 0H13L244 671Q247 680 254 685T270 690H345ZM482 286V229H132V286H482Z" />
<glyph unicode="B" horiz-adv-x="617" d="M306 698Q390 698 439 683T511 628T533 518Q533 444 506 405T416 360V356Q493 349 523 302T554 172Q554 101 533 62T463 8T337 -8Q280 -8 240 -8T165 -5T93 0L107 52Q128 51 188 50T328 49Q388 49 422 59T472 98T487 182Q487
241 472 273T420 318T320 332H106V383H320Q375 384 407 394T454 433T469 512Q469 565 454 593T402 631T303 641Q256 641 218 641T152 641T107 638L93 690Q126 694 156 695T221 697T306 698ZM157 690V0H93V690H157Z" />
<glyph unicode="C" horiz-adv-x="567" d="M332 702Q374 702 404 700T461 694T515 683L507 633Q477 637 453 639T400 642T332 644Q258 644 215 616T154 522T136 345Q136 233 154 168T215 75T332 46Q394 46 437 49T521 58L529 9Q487 -2 443 -7T332 -12Q235 -12 177
22T92 135T66 345Q66 477 92 555T176 667T332 702Z" />
<glyph unicode="D" horiz-adv-x="662" d="M333 699Q405 699 455 681T536 621T581 512T595 345Q595 246 581 178T536 69T455 10T333 -9Q263 -9 204 -7T93 0L122 52Q166 51 217 50T333 49Q405 49 447 76T508 169T527 345Q527 456 509 521T448 614T333 642Q270 642
219 641T121 638L93 690Q145 694 204 696T333 699ZM158 690V0H93V690H158Z" />
<glyph unicode="E" horiz-adv-x="557" d="M209 691Q258 691 308 691T407 690T504 685L501 634H220Q187 634 170 616T152 563V127Q152 92 169 74T220 55H501L504 5Q457 2 408 1T308 0T209 -1Q154 -1 121 30T87 113V577Q87 629 120 660T209 691ZM104 393H461V340H104V393Z" />
<glyph unicode="F" horiz-adv-x="536" d="M212 691Q260 691 309 691T405 689T499 685L495 634H228Q193 634 175 616T156 563V0H90V574Q90 628 123 659T212 691ZM107 385H456V332H107V385Z" />
<glyph unicode="G" horiz-adv-x="626" d="M344 703Q383 703 416 701T479 695T538 683L530 634Q499 638 469 640T409 643T348 644Q288 644 248 631T183 585T147 492T136 342Q136 235 152 170T205 75T305 45Q347 45 380 58T442 90T497 131L507 90Q486 65 454 42T380
3T289 -13Q210 -13 161 25T90 142T67 346Q67 482 93 559T181 670T344 703ZM553 399V0H506L494 101L489 118V399H553Z" />
<glyph unicode="H" horiz-adv-x="664" d="M158 690V0H93V690H158ZM517 398V341H150V398H517ZM571 690V0H506V690H571Z" />
<glyph unicode="I" horiz-adv-x="251" d="M158 690V0H93V690H158Z" />
<glyph unicode="J" horiz-adv-x="334" d="M245 690V134Q245 64 212 28T115 -8Q103 -8 88 -7T58 -3T33 3L40 48H93Q179 48 179 133V690H245Z" />
<glyph unicode="K" horiz-adv-x="581" d="M542 690L330 397Q322 386 315 378T298 360V358Q308 349 317 340T333 319L557 0H482L229 361L469 690H542ZM157 690V467Q157 438 155 414T149 361Q152 333 154 307T157 255V0H93V690H157ZM269 386V333H132V386H269Z" />
<glyph unicode="L" horiz-adv-x="512" d="M155 690V127Q155 93 174 75T228 56H485L487 5Q421 1 353 0T217 -1Q152 -1 121 33T90 119V690H155Z" />
<glyph unicode="M" horiz-adv-x="869" d="M733 690Q761 690 761 661L791 0H725L698 635H676L496 94Q490 72 467 72H401Q378 72 371 94L192 635H170L144 0H78L106 661Q108 690 136 690H215Q237 690 243 667L394 217Q403 194 409 171T424 123H445Q452 147 459 170T474
219L625 667Q631 690 654 690H733Z" />
<glyph unicode="N" horiz-adv-x="699" d="M606 690V28Q606 0 579 0H509Q497 0 490 5T477 22L213 546Q204 565 193 587T175 629H156Q157 609 157 588T158 546V0H93V662Q93 690 121 690H188Q200 690 207 685T220 668L476 156Q487 135 499 111T522 63H543Q543 88
542 113T541 162V690H606Z" />
<glyph unicode="O" horiz-adv-x="666" d="M333 703Q407 703 458 685T540 625T585 514T599 345Q599 245 585 176T540 66T458 6T333 -13Q259 -13 208 5T126 65T81 176T66 345Q66 445 80 514T126 624T208 684T333 703ZM333 644Q259 644 216 616T154 522T136 345Q136
233 154 168T215 75T333 46Q407 46 450 74T511 168T530 345Q530 457 512 522T450 615T333 644Z" />
<glyph unicode="P" horiz-adv-x="587" d="M324 699Q403 699 450 680T517 616T538 487Q538 404 518 358T453 294T330 276Q289 276 252 277T185 281T133 287T103 292L106 333Q157 333 213 333T323 333Q378 334 410 347T457 393T471 487Q471 549 457 582T411 628T323
641Q243 641 185 641T107 638L93 690Q130 694 162 696T232 698T324 699ZM158 690V0H93V690H158Z" />
<glyph unicode="Q" horiz-adv-x="667" d="M334 703Q407 703 458 685T540 625T585 514T600 345Q600 245 586 176T541 66T459 6T334 -13Q259 -13 208 5T126 65T81 176T67 345Q67 445 81 514T126 624T208 684T334 703ZM295 -46Q350 -74 411 -92T546 -121L525 -187Q452
-173 389 -146T275 -85L295 -46ZM334 644Q260 644 217 616T155 522T136 345Q136 233 154 168T216 75T334 46Q408 46 450 74T512 168T531 345Q531 457 512 522T451 615T334 644Z" />
<glyph unicode="R" horiz-adv-x="614" d="M325 699Q402 699 449 682T517 622T539 501Q539 443 526 406T485 348T412 321V317Q429 312 445 299T474 266T494 219L564 0H494L428 217Q414 260 390 278T328 296Q269 296 224 296T148 298T103 300L106 353H323Q379 354
411 366T458 410T472 498Q472 555 458 586T412 629T323 641Q243 641 185 641T107 639L93 690Q130 694 162 696T232 698T325 699ZM158 690V0H93V690H158Z" />
<glyph unicode="S" d="M277 702Q326 701 376 697T476 684L471 636Q427 639 377 641T280 643Q239 643 210 640T161 626T134 590T125 520Q125 456 147 430T220 393L365 363Q443 347 473 302T504 174Q504 113 490 77T449 21T379 -5T280 -12Q244 -12 191 -9T70 5L75
53Q126 51 160 50T223 48T282 47Q340 48 374 57T422 93T437 175Q437 220 428 245T397 284T341 304L194 335Q120 350 90 395T59 521Q59 582 72 618T112 673T180 696T277 702Z" />
<glyph unicode="T" horiz-adv-x="575" d="M320 690V0H254V690H320ZM550 690V632H25V690H550Z" />
<glyph unicode="U" horiz-adv-x="666" d="M579 690V261Q579 162 555 102T478 15T336 -13Q245 -13 191 14T112 102T88 261V690H153V261Q153 181 170 134T227 67T333 46Q399 46 438 66T495 134T513 261V690H579Z" />
<glyph unicode="V" horiz-adv-x="603" d="M583 690L364 19Q361 11 354 6T338 0H265Q256 0 249 5T239 19L20 690H88L266 126Q272 107 277 89T288 52H315Q321 71 326 89T338 127L514 690H583Z" />
<glyph unicode="W" horiz-adv-x="942" d="M910 690L755 20Q752 12 745 6T727 0H648Q638 0 631 6T621 21L499 562Q495 582 491 601T482 640H459Q455 621 451 601T443 562L321 21Q319 12 312 6T294 0H214Q204 0 197 6T187 20L32 690H101L227 130Q232 112 235 92T243
51H268Q272 72 276 91T284 130L406 667Q408 678 415 684T433 690H509Q519 690 526 684T535 667L658 130Q663 110 666 91T673 51H699Q703 71 706 90T714 129L841 690H910Z" />
<glyph unicode="X" horiz-adv-x="605" d="M562 690L371 358L575 0H502L303 358L490 690H562ZM115 690L302 358L102 0H30L232 358L43 690H115ZM347 385V333H260V385H347Z" />
<glyph unicode="Y" d="M543 690L308 240H251L15 690H85L243 384Q252 366 260 347T276 310H283Q290 328 299 347T316 383L473 690H543ZM312 291V0H246V291H312Z" />
<glyph unicode="Z" horiz-adv-x="563" d="M437 634L508 633L122 56L49 57L437 634ZM515 57V0H49V57H515ZM508 690V633H54V690H508Z" />
<glyph unicode="[" horiz-adv-x="323" d="M279 768V724H170Q157 724 157 709V-106Q157 -121 170 -121H279V-165H142Q123 -165 110 -154T96 -119V722Q96 743 109 755T142 768H279Z" />
<glyph unicode="\" horiz-adv-x="509" d="M86 690L479 -64H424L31 690H86Z" />
<glyph unicode="]" horiz-adv-x="323" d="M180 768Q201 768 213 756T226 722V-119Q226 -139 214 -152T180 -165H44V-121H152Q166 -121 166 -106V709Q166 724 152 724H44V768H180Z" />
<glyph unicode="^" horiz-adv-x="414" d="M230 591L384 386L358 367L212 544H204L57 367L30 386L184 591H230Z" />
<glyph unicode="_" horiz-adv-x="436" d="M436 0V-50H0V0H436Z" />
<glyph unicode="`" horiz-adv-x="302" d="M79 718L243 572L219 542L41 670L79 718Z" />
<glyph unicode="a" horiz-adv-x="545" d="M310 497Q360 497 394 483T447 436T465 348V0H415L405 106L401 115V348Q401 394 380 418T298 442Q254 442 196 438T83 428L77 475Q111 481 149 485T228 493T310 497ZM432 296L431 248L194 246Q156 245 139 226T121 171V129Q121
88 142 68T206 48Q238 47 276 59T353 94T420 148V99Q408 84 386 66T334 31T269 3T195 -8Q153 -8 122 7T74 51T56 123V179Q56 235 89 265T184 296H432Z" />
<glyph unicode="b" horiz-adv-x="566" d="M331 497Q423 497 464 439T506 243Q506 178 496 130T461 51T397 4T298 -12Q273 -12 246 -10T190 -4T135 7T82 22L133 65Q163 57 191 52T245 45T297 43Q349 43 380 62T426 125T440 243Q440 316 429 359T389 422T311 441Q269
441 230 418T138 353L134 398Q166 430 198 451T263 485T331 497ZM145 700V506Q145 475 144 451T138 402L144 387L145 19L82 22V700H145Z" />
<glyph unicode="c" horiz-adv-x="485" d="M287 497Q307 497 333 495T386 489T436 476L427 434Q396 438 359 440T297 442Q234 442 197 425T143 364T126 243Q126 166 142 122T196 61T297 43Q312 43 336 44T387 47T438 53L446 10Q410 -1 369 -6T286 -12Q204 -12 154
13T82 93T59 243Q59 336 81 392T154 472T287 497Z" />
<glyph unicode="d" horiz-adv-x="569" d="M242 497Q290 497 338 484T432 446L429 404Q377 421 338 431T255 441Q209 441 181 424T139 363T126 244Q126 168 139 125T179 63T251 44Q282 44 307 52T362 80T429 127L434 79Q389 39 339 14T233 -12Q141 -12 101 50T61
243Q61 337 80 392T139 472T242 497ZM484 700V0H435L427 85L421 91V426L426 441Q422 469 422 493T421 545V700H484Z" />
<glyph unicode="e" horiz-adv-x="533" d="M277 497Q381 497 429 459T479 346Q480 281 454 246T367 211H86V261H353Q390 261 403 285T415 345Q414 397 382 419T280 442Q222 442 188 424T140 364T126 248Q126 167 143 123T197 61T294 43Q336 43 381 46T461 55L468
12Q447 4 415 -1T348 -9T286 -12Q204 -12 155 13T82 95T59 244Q59 339 81 394T152 473T277 497Z" />
<glyph unicode="f" horiz-adv-x="371" d="M254 716Q269 716 293 716T341 714T384 710L380 663H276Q224 663 203 642T181 571V0H118V576Q118 622 131 652T174 699T254 716ZM345 485V433H30V480L123 485H345Z" />
<glyph unicode="g" horiz-adv-x="553" d="M270 497Q345 497 389 481T452 431T472 344Q472 292 453 258T389 208T270 191Q195 191 151 207T87 257T67 343Q67 396 86 430T150 480T270 497ZM270 447Q190 447 158 423T126 344Q126 290 158 266T270 241Q350 241 381
265T412 344Q412 398 381 422T270 447ZM529 485L525 448L403 440L368 485H529ZM134 224L173 219Q152 200 145 176T149 131T198 105L384 74Q450 64 475 32T500 -59Q500 -114 479 -146T408 -192T275 -206Q211 -206 168 -199T97 -174T59 -130T47 -61Q47 -28 54 -6T80
34T130 68L183 97L217 86L168 51Q146 36 133 21T115 -12T109 -57Q109 -93 124 -114T175 -143T275 -151Q337 -151 372 -143T423 -114T438 -57Q438 -29 432 -13T407 12T353 26L169 54Q138 59 120 74T94 110T89 152T103 193T134 224Z" />
<glyph unicode="h" horiz-adv-x="577" d="M365 497Q496 497 496 364V0H432V347Q432 399 413 420T349 442Q300 442 253 420T140 354L138 401Q196 445 253 471T365 497ZM147 700L148 499Q148 469 146 442T140 393L147 378V0H84V700H147Z" />
<glyph unicode="i" horiz-adv-x="238" d="M150 485V0H88V485H150ZM134 689Q155 689 155 668V609Q155 588 134 588H104Q83 588 83 609V668Q83 689 104 689H134Z" />
<glyph unicode="j" horiz-adv-x="239" d="M152 485V-24Q152 -61 142 -94T112 -155T68 -205L33 -178Q61 -143 74 -108T88 -24V485H152ZM135 689Q155 689 155 668V609Q155 588 135 588H106Q85 588 85 609V668Q85 689 106 689H135Z" />
<glyph unicode="k" horiz-adv-x="496" d="M458 485L295 303Q289 296 280 288T265 275V273Q271 268 280 258T295 239L474 0H399L196 278L382 485H458ZM147 700L148 382Q148 352 146 328T140 276Q144 248 145 222T147 170V0H84V700H147ZM236 299V251H122V299H236Z" />
<glyph unicode="l" horiz-adv-x="287" d="M148 700L147 121Q147 86 166 68T219 50H270L277 3Q269 -1 255 -3T224 -7T197 -8Q146 -8 116 22T85 108V700H148Z" />
<glyph unicode="m" horiz-adv-x="877" d="M669 497Q731 497 764 463T797 364V0H734V347Q733 396 713 419T648 442Q619 442 593 433T536 404T465 354L461 400Q515 448 566 472T669 497ZM136 485L141 393L147 378V0H84V485H136ZM344 497Q405 497 438 464T471 364V0H410V347Q410
398 389 420T324 442Q296 442 270 433T213 405T140 354L136 400Q190 448 241 472T344 497Z" />
<glyph unicode="n" horiz-adv-x="577" d="M365 497Q496 497 496 364V0H433V347Q433 399 413 420T349 442Q300 442 253 419T141 354L138 401Q197 447 253 472T365 497ZM137 485L142 393L147 378V0H84V485H137Z" />
<glyph unicode="o" horiz-adv-x="565" d="M283 497Q364 497 413 472T483 391T505 242Q505 149 484 93T413 12T283 -13Q202 -13 153 12T82 93T60 242Q60 335 82 391T153 472T283 497ZM283 442Q224 442 190 424T142 363T127 242Q127 166 141 122T190 60T283 42Q341
42 375 60T424 122T439 242Q439 319 425 362T376 424T283 442Z" />
<glyph unicode="p" horiz-adv-x="573" d="M342 497Q434 497 473 434T512 241Q512 148 493 93T434 13T331 -12Q283 -12 236 1T141 41L144 81Q196 64 235 54T318 44Q365 44 393 61T434 122T447 241Q447 315 435 358T396 421T324 441Q282 441 241 420T143 355L139
401Q169 431 202 452T272 485T342 497ZM136 485L143 388L147 379V59L144 47Q147 19 147 -5T147 -57V-204H84V485H136Z" />
<glyph unicode="q" horiz-adv-x="566" d="M272 497Q295 497 321 495T376 489T431 478T484 464L432 419Q403 428 375 433T321 440T273 442Q219 441 187 423T140 361T125 237Q125 136 151 90T246 44Q294 44 334 65T428 124L437 81Q403 52 369 31T300 -1T226 -13Q141
-13 101 48T60 241Q60 306 71 354T106 434T170 481T272 497ZM421 466L484 464V-204H421L420 -25Q420 5 421 29T428 78L421 93V466Z" />
<glyph unicode="r" horiz-adv-x="395" d="M133 485L141 393L147 378V0H84V485H133ZM375 497L367 437H343Q296 437 251 417T141 358L136 400Q192 445 247 471T354 497H375Z" />
<glyph unicode="s" horiz-adv-x="505" d="M240 497Q271 497 305 495T374 490T438 483L432 436Q387 439 340 440T248 442Q200 443 172 440T130 420T116 365Q116 322 135 307T191 284L340 256Q396 245 423 216T451 127Q451 66 429 37T362 -1T250 -11Q221 -11 173
-9T65 2L70 48Q97 47 124 46T179 44T239 43Q296 44 329 49T376 73T390 127Q390 169 368 184T310 206L162 233Q125 241 101 256T66 298T54 365Q54 423 74 451T135 489T240 497Z" />
<glyph unicode="t" horiz-adv-x="369" d="M180 631V121Q180 84 197 67T251 50H330L338 3Q323 -1 304 -3T266 -7T237 -8Q178 -8 148 23T117 113V631H180ZM344 485V433H29V480L124 485H344Z" />
<glyph unicode="u" horiz-adv-x="566" d="M144 485V137Q143 87 164 65T233 43Q278 43 321 65T426 128L433 82Q375 35 321 11T212 -13Q81 -13 81 120V485H144ZM482 485V0H432L426 91L419 106V485H482Z" />
<glyph unicode="v" horiz-adv-x="522" d="M499 485L314 16Q311 9 305 5T290 0H231Q223 0 217 4T207 16L22 485H90L222 134Q231 113 238 91T254 47H267Q276 69 284 91T300 135L432 485H499Z" />
<glyph unicode="w" horiz-adv-x="820" d="M792 485L641 19Q638 10 631 5T615 0H556Q547 0 540 5T530 21L434 368Q429 387 425 405T416 443H404Q400 424 395 406T385 368L290 21Q287 11 280 6T263 0H205Q196 0 189 5T179 19L28 485H94L208 113Q214 96 218 79T226
43H240Q245 61 250 78T259 113L356 464Q358 473 364 479T381 485H439Q449 485 455 479T465 463L561 113Q565 96 570 79T579 43H593Q598 62 601 79T611 113L726 485H792Z" />
<glyph unicode="x" horiz-adv-x="520" d="M480 485L322 251L492 0H422L255 251L410 485H480ZM110 485L265 251L98 0H28L197 251L40 485H110ZM303 277V227H217V277H303Z" />
<glyph unicode="y" horiz-adv-x="521" d="M498 485L294 -34Q282 -65 266 -94T226 -147T173 -187T102 -207L94 -166Q154 -146 185 -111T236 -27L258 27Q266 46 273 67T288 107L430 485H498ZM90 485L233 106Q238 92 243 78T253 50H274L253 0H230Q222 0 216 4T206
17L22 485H90Z" />
<glyph unicode="z" horiz-adv-x="506" d="M381 433L453 432L122 51L50 52L381 433ZM456 52V0H50V52H456ZM453 485V432H53V485H453Z" />
<glyph unicode="{" horiz-adv-x="312" d="M266 768V727Q211 727 191 705T171 634V445Q172 405 165 382T140 347T87 328Q122 317 141 304T167 271T175 215V-31Q175 -79 195 -101T270 -124V-165Q214 -168 180 -154T130 -110T114 -34V227Q114 254 108 267T87 287T50
303V353Q75 361 88 367T105 387T110 433V637Q110 684 125 713T175 757T266 768Z" />
<glyph unicode="|" horiz-adv-x="242" d="M145 781V-169H97V781H145Z" />
<glyph unicode="}" horiz-adv-x="312" d="M46 768Q102 771 136 757T186 714T202 637V433Q202 401 207 387T225 367T263 353V303Q240 294 226 287T205 267T198 227V-34Q198 -80 183 -110T133 -154T42 -165V-124Q98 -124 117 -102T137 -31V215Q137 250 145 270T172
304T225 328Q192 335 174 347T148 382T141 445V634Q141 682 122 704T46 727V768Z" />
<glyph unicode="~" horiz-adv-x="528" d="M157 342Q185 340 211 331T262 311T312 291T364 279Q392 277 403 290T414 337H448Q454 283 432 256T372 230Q339 232 312 241T261 261T213 281T165 293Q136 296 126 281T115 233H81Q77 271 86 295T114 331T157 342Z" />
<glyph unicode="&#xa0;" horiz-adv-x="225" />
<glyph unicode="&#xa1;" horiz-adv-x="248" d="M150 280L156 112V-199H92V112L98 280H150ZM134 488Q147 488 152 483T158 463V406Q158 393 153 388T134 382H116Q103 382 97 387T91 406V463Q91 477 97 482T116 488H134Z" />
<glyph unicode="&#xa2;" horiz-adv-x="507" d="M286 604Q307 604 332 602T385 596T435 582L426 539Q396 545 359 547T297 549Q232 549 194 531T139 470T122 349Q122 272 139 229T194 167T297 149Q311 149 335 150T387 154T438 161L445 118Q409 107 368 101T286
95Q204 95 154 119T82 200T59 349Q59 443 81 498T154 579T286 604ZM287 126L276 0H239L251 126H287ZM322 568L288 124H251L285 568H322ZM333 690L322 566H286L296 690H333Z" />
<glyph unicode="&#xa3;" horiz-adv-x="566" d="M317 702Q337 702 364 701T423 698T488 692L484 640Q463 641 445 642T407 644T364 645T308 645Q242 645 217 618T194 524L209 256Q211 209 206 172T184 106T137 54Q153 56 169 56T201 56H512V0H66V56Q118 85 133
136T145 256L130 523Q127 582 139 617T176 671T237 695T317 702ZM428 385L426 341H60L59 385H428Z" />
<glyph unicode="&#xa4;" horiz-adv-x="597" d="M297 506Q256 506 221 486T165 430T144 352Q144 310 165 275T221 219T297 199Q339 199 373 219T429 274T450 352Q450 394 429 429T374 485T297 506ZM103 576L186 493L157 464L74 546L103 576ZM493 576L523 546L442
466L413 495L493 576ZM160 246L191 215L103 127L72 158L160 246ZM436 242L523 156L493 127L407 213L436 242ZM297 546Q352 546 395 520T465 450T491 351Q491 298 465 254T395 184T297 157Q244 157 200 183T129 254T103 351Q103 406 129 450T199 520T297 546Z" />
<glyph unicode="&#xa5;" horiz-adv-x="612" d="M570 690L335 264H277L42 690H110L267 405Q277 388 285 369T303 330H309Q318 349 327 368T345 404L501 690H570ZM339 315V0H273V315H339ZM524 205V165H93L92 205H524ZM524 317V276H93L92 317H524Z" />
<glyph unicode="&#xa6;" horiz-adv-x="244" d="M146 781V381H98V781H146ZM146 231V-169H98V231H146Z" />
<glyph unicode="&#xa7;" horiz-adv-x="544" d="M129 398Q125 354 129 322T149 265T196 223L376 122Q410 102 432 81T466 33T478 -32Q478 -89 454 -115T387 -149T288 -156Q256 -155 220 -154T147 -150T71 -144L76 -94Q112 -96 143 -97T207 -99T275 -101Q315 -101
345 -98T393 -80T410 -30Q412 9 392 32T341 73L169 170Q122 195 100 227T75 301T81 398H129ZM257 703Q290 703 328 702T404 698T473 691L469 642Q438 644 412 645T353 647T271 648Q230 649 199 646T151 628T134 580Q133 541 153 518T204 477L377 380Q424 354 445
322T470 247T463 150H416Q420 194 416 227T395 284T348 327L168 430Q134 449 111 470T77 518T66 581Q66 633 88 659T154 694T257 703Z" />
<glyph unicode="&#xa8;" horiz-adv-x="407" d="M303 686Q322 686 322 667V611Q322 592 303 592H282Q263 592 263 611V667Q263 686 282 686H303ZM126 686Q145 686 145 667V611Q145 592 126 592H104Q86 592 86 611V667Q86 686 104 686H126Z" />
<glyph unicode="&#xa9;" horiz-adv-x="844" d="M422 703Q497 703 561 677T675 602T752 489T780 345Q780 267 753 202T676 88T562 14T422 -13Q347 -13 283 13T169 88T92 201T64 345Q64 423 92 488T169 602T282 676T422 703ZM427 572Q474 572 503 570T561 559L554
523Q522 525 496 526T426 527Q373 527 341 510T296 454T283 347Q283 280 296 241T341 185T426 168Q473 168 504 169T566 174L572 137Q541 130 509 127T427 123Q356 123 313 145T251 216T232 347Q232 430 251 479T313 550T427 572ZM422 666Q356 666 298 642T196
575T127 473T101 345Q101 276 126 218T196 116T298 48T422 24Q488 24 546 48T648 115T717 217T742 345Q742 415 717 473T649 574T547 642T422 666Z" />
<glyph unicode="&#xaa;" horiz-adv-x="442" d="M255 605Q306 605 334 582T363 502V271H324L316 343L314 350V503Q314 529 300 546T246 563Q211 563 170 561T90 554L84 591Q108 594 134 597T191 603T255 605ZM339 470L338 441L173 434Q144 433 131 421T118 386V361Q118
333 133 321T178 309Q204 309 232 318T285 343T328 376V345Q320 334 304 321T266 295T218 274T164 266Q121 266 95 287T69 351V390Q69 428 93 449T159 470H339Z" />
<glyph unicode="&#xab;" horiz-adv-x="473" d="M381 457L414 434L280 251L415 64L382 41L220 243V259L381 457ZM208 457L241 434L107 251L242 64L209 41L47 243V259L208 457Z" />
<glyph unicode="&#xac;" horiz-adv-x="591" d="M509 322V272H78V322H509ZM509 311V131H458V311H509Z" />
<glyph unicode="&#xad;" horiz-adv-x="460" d="M384 277V227H77V277H384Z" />
<glyph unicode="&#xae;" horiz-adv-x="563" d="M282 702Q344 702 394 672T474 592T504 480Q504 418 474 368T394 287T282 257Q220 257 170 287T89 367T59 480Q59 542 89 592T169 672T282 702ZM214 613V346H182V613H214ZM282 677Q228 677 183 651T112 579T85 480Q85
425 111 380T183 309T282 282Q336 282 380 308T451 380T478 480Q478 534 452 579T381 650T282 677ZM292 616Q347 616 370 600T394 539Q394 508 380 492T334 471V469Q346 468 356 458T373 431L405 346H371L340 429Q333 445 322 452T294 459Q250 459 224 459T187
460L188 483H291Q330 484 346 495T361 536Q362 569 346 579T291 590Q254 590 227 590T189 589L182 613Q208 615 230 615T292 616Z" />
<glyph unicode="&#xaf;" horiz-adv-x="400" d="M336 663V615H64V663H336Z" />
<glyph unicode="&#xb0;" horiz-adv-x="370" d="M186 703Q220 703 249 686T295 641T312 577Q312 542 295 514T249 468T186 450Q151 450 122 467T75 513T58 577Q58 612 75 640T121 685T186 703ZM186 662Q150 662 125 638T100 577Q100 554 111 534T142 503T186 491Q209
491 228 502T259 534T270 577Q270 614 246 638T186 662Z" />
<glyph unicode="&#xb1;" horiz-adv-x="592" d="M511 379V330H81V379H511ZM511 128V79H81V128H511ZM321 517L320 192H271V517H321Z" />
<glyph unicode="&#xb2;" horiz-adv-x="396" d="M197 766Q240 766 270 758T316 730T332 674Q332 637 311 603T248 525L127 401Q144 402 159 402T191 402L350 401V358H57V383Q57 390 59 395T66 404L198 540Q225 568 242 589T267 629T275 669Q275 702 254 712T196
722Q166 722 136 720T67 710L63 749Q107 760 140 763T197 766Z" />
<glyph unicode="&#xb3;" horiz-adv-x="400" d="M187 767Q260 767 291 747T323 674Q323 634 309 607T256 572V570Q299 562 316 537T334 469Q335 408 303 379T195 350Q159 350 123 354T57 363L62 402Q83 399 103 397T143 394T185 393Q237 393 258 411T280 474Q280
494 274 510T250 537T194 547L110 548V586L194 588Q231 588 247 600T267 629T271 663Q271 699 252 711T181 723Q151 723 120 721T67 714L63 752Q94 758 125 762T187 767Z" />
<glyph unicode="&#xb4;" horiz-adv-x="301" d="M217 723L255 674L77 547L53 577L217 723Z" />
<glyph unicode="&#xb5;" horiz-adv-x="575" d="M146 485V143Q146 89 169 68T238 46Q287 46 329 73T397 144T424 242L427 116Q409 77 378 48T309 4T229 -12Q186 -12 154 3T103 50T84 128V485H146ZM146 84V-86L137 -204H84V164L146 84ZM487 485V102Q487 85 489 71T497
49T518 41H552L557 3Q541 -3 525 -6T491 -9Q457 -9 442 14T427 79V116L424 132V485H487Z" />
<glyph unicode="&#xb6;" horiz-adv-x="594" d="M348 702Q378 702 419 699T494 685L488 646Q463 651 431 653T369 657T316 658L285 200Q156 210 101 268T45 450Q45 543 75 598T172 677T348 702ZM326 685V-210H275V685H326ZM494 685V0H443V685H494Z" />
<glyph unicode="&#xb7;" horiz-adv-x="225" d="M124 311Q138 311 143 305T149 286V229Q149 215 144 210T124 204H102Q89 204 83 209T77 229V286Q77 299 83 305T102 311H124Z" />
<glyph unicode="&#xb8;" horiz-adv-x="229" d="M95 -45Q129 -42 151 -47T184 -67T194 -110Q193 -149 173 -177T118 -218T37 -225L47 -191Q92 -192 119 -170T147 -115Q147 -93 135 -85T88 -76L95 -45Z" />
<glyph unicode="&#xb9;" horiz-adv-x="292" d="M195 760V358H144V680Q144 688 144 696T146 714L38 682L31 718L144 760H195Z" />
<glyph unicode="&#xba;" horiz-adv-x="446" d="M223 605Q310 605 345 567T381 434Q381 372 366 334T316 280T223 263Q135 263 100 301T65 434Q65 528 100 566T223 605ZM223 564Q163 564 140 537T116 434Q116 360 139 333T223 305Q282 305 305 332T329 434Q329
509 306 536T223 564Z" />
<glyph unicode="&#xbb;" horiz-adv-x="473" d="M92 457L253 259V243L91 41L58 64L193 251L59 434L92 457ZM266 457L427 259V243L265 41L231 64L366 251L232 434L266 457Z" />
<glyph unicode="&#xbc;" horiz-adv-x="855" d="M640 690L181 0H133L592 690H640ZM214 690V276H164V608Q164 617 165 626T167 644L50 612L44 647L164 690H214ZM655 414L523 168Q519 159 524 152T541 144H809V108L749 103H508Q484 103 471 120T471 162L605 414H655ZM762
335V0H714V267L724 335H762Z" />
<glyph unicode="&#xbd;" horiz-adv-x="881" d="M636 690L177 0H129L588 690H636ZM214 690V276H164V608Q164 617 165 626T167 644L50 612L44 647L164 690H214ZM665 421Q712 421 744 415T793 388T810 330Q810 293 789 259T724 180L588 44Q607 45 624 45T661 45H829L828
0H524V29Q524 35 525 40T531 51L671 189Q713 231 734 264T755 327Q755 361 730 369T663 377Q632 377 604 376T532 368L528 406Q576 416 607 418T665 421Z" />
<glyph unicode="&#xbe;" horiz-adv-x="945" d="M742 690L283 0H235L694 690H742ZM196 695Q278 695 309 675T341 600Q341 560 326 531T265 495V493Q314 486 332 459T352 389Q354 326 321 296T205 266Q169 266 132 269T60 277L64 315Q87 313 108 312T150 310T194
309Q252 309 276 328T300 395Q300 416 293 433T266 461T204 472L118 473V508L204 510Q244 511 262 523T286 554T291 588Q291 627 269 640T189 653Q157 653 127 652T72 648L68 685Q102 690 133 692T196 695ZM745 414L614 168Q609 159 614 152T632 144H900V108L840
103H598Q574 103 561 120T561 162L696 414H745ZM847 335V0H800V267L809 335H847Z" />
<glyph unicode="&#xbf;" horiz-adv-x="501" d="M287 288Q287 232 270 192T228 123T176 67T132 13T113 -52Q112 -108 147 -134T258 -161Q308 -161 339 -160T396 -157T455 -151L460 -196Q435 -200 415 -204T372 -210T320 -214T246 -216Q148 -216 97 -178T46 -61Q46
-16 64 17T110 77T164 133T211 198T231 288H287ZM269 496Q282 496 287 491T293 472V413Q293 400 288 395T269 389H251Q238 389 233 394T227 413V472Q227 485 232 490T251 496H269Z" />
<glyph unicode="&#xc0;" horiz-adv-x="615" d="M345 690Q354 690 361 685T371 671L602 0H534L340 582Q336 596 331 610T322 638H293Q289 625 285 611T275 582L81 0H13L244 671Q247 680 254 685T270 690H345ZM482 286V229H132V286H482ZM195 902L359 756L335 726L157
854L195 902Z" />
<glyph unicode="&#xc1;" horiz-adv-x="615" d="M345 690Q354 690 361 685T371 671L602 0H534L340 582Q336 596 331 610T322 638H293Q289 625 285 611T275 582L81 0H13L244 671Q247 680 254 685T270 690H345ZM482 286V229H132V286H482ZM409 907L447 858L269 731L245
761L409 907Z" />
<glyph unicode="&#xc2;" horiz-adv-x="615" d="M345 690Q354 690 361 685T371 671L602 0H534L340 582Q336 596 331 610T322 638H293Q289 625 285 611T275 582L81 0H13L244 671Q247 680 254 685T270 690H345ZM482 286V229H132V286H482ZM330 886L464 762L441 734L312
833H304L174 734L151 762L284 886H330Z" />
<glyph unicode="&#xc3;" horiz-adv-x="615" d="M345 690Q354 690 361 685T371 671L602 0H534L340 582Q336 596 331 610T322 638H293Q289 625 285 611T275 582L81 0H13L244 671Q247 680 254 685T270 690H345ZM482 286V229H132V286H482ZM231 870Q254 868 271 860T305
841T338 822T377 810Q407 807 418 820T429 865H461Q465 813 443 786T384 762Q350 765 327 779T283 807T237 823Q208 826 197 812T186 765H154Q151 801 160 825T188 861T231 870Z" />
<glyph unicode="&#xc4;" horiz-adv-x="615" d="M345 690Q354 690 361 685T371 671L602 0H534L340 582Q336 596 331 610T322 638H293Q289 625 285 611T275 582L81 0H13L244 671Q247 680 254 685T270 690H345ZM482 286V229H132V286H482ZM407 861Q426 861 426 842V786Q426
767 407 767H386Q367 767 367 786V842Q367 861 386 861H407ZM230 861Q249 861 249 842V786Q249 767 230 767H208Q190 767 190 786V842Q190 861 208 861H230Z" />
<glyph unicode="&#xc5;" horiz-adv-x="615" d="M345 690Q354 690 361 685T371 671L602 0H534L340 582Q336 596 331 610T322 638H293Q289 625 285 611T275 582L81 0H13L244 671Q247 680 254 685T270 690H345ZM482 286V229H132V286H482ZM308 918Q336 918 359 905T397
868T411 817Q411 790 397 767T360 729T308 715Q280 715 256 728T218 765T204 817Q204 845 218 868T256 904T308 918ZM308 883Q280 883 262 865T243 817Q243 787 261 769T308 751Q336 751 354 769T373 817Q373 846 355 864T308 883Z" />
<glyph unicode="&#xc6;" horiz-adv-x="910" d="M570 691Q663 691 729 690T857 685L855 634H595Q562 634 542 614T522 560V128Q522 93 540 75T595 56H855L857 5Q786 1 715 0T570 -1Q521 -1 490 31T459 113V568Q459 590 470 612T495 642H487Q473 635 456 618T423
576L73 0H3L366 590Q384 621 404 641T448 671T502 686T570 691ZM479 297V242H187L197 297H479ZM474 394L814 393V340L474 339V394Z" />
<glyph unicode="&#xc7;" horiz-adv-x="567" d="M332 702Q374 702 404 700T461 694T515 683L507 633Q477 637 453 639T400 642T332 644Q258 644 215 616T154 522T136 345Q136 233 154 168T215 75T332 46Q394 46 437 49T521 58L529 9Q487 -2 443 -7T332 -12Q235
-12 177 22T92 135T66 345Q66 477 92 555T176 667T332 702ZM289 -57Q323 -54 345 -59T378 -79T388 -122Q387 -161 367 -189T312 -230T231 -237L241 -203Q286 -204 313 -182T341 -127Q341 -105 329 -97T282 -88L289 -57Z" />
<glyph unicode="&#xc8;" horiz-adv-x="557" d="M209 691Q258 691 308 691T407 690T504 685L501 634H220Q187 634 170 616T152 563V127Q152 92 169 74T220 55H501L504 5Q457 2 408 1T308 0T209 -1Q154 -1 121 30T87 113V577Q87 629 120 660T209 691ZM104 393H461V340H104V393ZM197
924L361 778L337 748L159 876L197 924Z" />
<glyph unicode="&#xc9;" horiz-adv-x="557" d="M209 691Q258 691 308 691T407 690T504 685L501 634H220Q187 634 170 616T152 563V127Q152 92 169 74T220 55H501L504 5Q457 2 408 1T308 0T209 -1Q154 -1 121 30T87 113V577Q87 629 120 660T209 691ZM104 393H461V340H104V393ZM411
929L449 880L271 753L247 783L411 929Z" />
<glyph unicode="&#xca;" horiz-adv-x="557" d="M209 691Q258 691 308 691T407 690T504 685L501 634H220Q187 634 170 616T152 563V127Q152 92 169 74T220 55H501L504 5Q457 2 408 1T308 0T209 -1Q154 -1 121 30T87 113V577Q87 629 120 660T209 691ZM104 393H461V340H104V393ZM332
908L466 784L443 756L314 855H306L176 756L153 784L286 908H332Z" />
<glyph unicode="&#xcb;" horiz-adv-x="557" d="M209 691Q258 691 308 691T407 690T504 685L501 634H220Q187 634 170 616T152 563V127Q152 92 169 74T220 55H501L504 5Q457 2 408 1T308 0T209 -1Q154 -1 121 30T87 113V577Q87 629 120 660T209 691ZM104 393H461V340H104V393ZM408
882Q427 882 427 863V807Q427 788 408 788H387Q368 788 368 807V863Q368 882 387 882H408ZM231 882Q250 882 250 863V807Q250 788 231 788H209Q191 788 191 807V863Q191 882 209 882H231Z" />
<glyph unicode="&#xcc;" horiz-adv-x="251" d="M158 690V0H93V690H158ZM12 907L176 761L152 731L-26 859L12 907Z" />
<glyph unicode="&#xcd;" horiz-adv-x="251" d="M158 690V0H93V690H158ZM227 912L265 863L87 736L63 766L227 912Z" />
<glyph unicode="&#xce;" horiz-adv-x="251" d="M158 690V0H93V690H158ZM147 891L281 767L258 739L129 838H121L-9 739L-32 767L101 891H147Z" />
<glyph unicode="&#xcf;" horiz-adv-x="251" d="M158 690V0H93V690H158ZM224 865Q243 865 243 846V790Q243 771 224 771H203Q184 771 184 790V846Q184 865 203 865H224ZM47 865Q66 865 66 846V790Q66 771 47 771H25Q7 771 7 790V846Q7 865 25 865H47Z" />
<glyph unicode="&#xd0;" horiz-adv-x="667" d="M325 387V349H23V387H325ZM336 699Q409 699 459 681T540 621T585 512T599 345Q599 246 585 178T540 69T459 10T336 -9Q267 -9 208 -7T96 0L125 52Q170 51 221 50T336 49Q408 49 451 76T512 169T530 345Q530 456 512
521T451 614T336 642Q274 642 223 641T124 638L96 690Q149 694 208 696T336 699ZM162 690V0H96V690H162Z" />
<glyph unicode="&#xd1;" horiz-adv-x="699" d="M606 690V28Q606 0 579 0H509Q497 0 490 5T477 22L213 546Q204 565 193 587T175 629H156Q157 609 157 588T158 546V0H93V662Q93 690 121 690H188Q200 690 207 685T220 668L476 156Q487 135 499 111T522 63H543Q543
88 542 113T541 162V690H606ZM285 875Q308 873 325 865T359 846T392 827T431 815Q461 812 472 825T483 870H515Q519 818 497 791T438 767Q404 770 381 784T337 812T291 828Q262 831 251 817T240 770H208Q205 806 214 830T242 866T285 875Z" />
<glyph unicode="&#xd2;" horiz-adv-x="666" d="M333 703Q407 703 458 685T540 625T585 514T599 345Q599 245 585 176T540 66T458 6T333 -13Q259 -13 208 5T126 65T81 176T66 345Q66 445 80 514T126 624T208 684T333 703ZM333 644Q259 644 216 616T154 522T136
345Q136 233 154 168T215 75T333 46Q407 46 450 74T511 168T530 345Q530 457 512 522T450 615T333 644ZM221 907L385 761L361 731L183 859L221 907Z" />
<glyph unicode="&#xd3;" horiz-adv-x="666" d="M333 703Q407 703 458 685T540 625T585 514T599 345Q599 245 585 176T540 66T458 6T333 -13Q259 -13 208 5T126 65T81 176T66 345Q66 445 80 514T126 624T208 684T333 703ZM333 644Q259 644 216 616T154 522T136
345Q136 233 154 168T215 75T333 46Q407 46 450 74T511 168T530 345Q530 457 512 522T450 615T333 644ZM435 912L473 863L295 736L271 766L435 912Z" />
<glyph unicode="&#xd4;" horiz-adv-x="666" d="M333 703Q407 703 458 685T540 625T585 514T599 345Q599 245 585 176T540 66T458 6T333 -13Q259 -13 208 5T126 65T81 176T66 345Q66 445 80 514T126 624T208 684T333 703ZM333 644Q259 644 216 616T154 522T136
345Q136 233 154 168T215 75T333 46Q407 46 450 74T511 168T530 345Q530 457 512 522T450 615T333 644ZM357 891L491 767L468 739L339 838H331L201 739L178 767L311 891H357Z" />
<glyph unicode="&#xd5;" horiz-adv-x="666" d="M333 703Q407 703 458 685T540 625T585 514T599 345Q599 245 585 176T540 66T458 6T333 -13Q259 -13 208 5T126 65T81 176T66 345Q66 445 80 514T126 624T208 684T333 703ZM333 644Q259 644 216 616T154 522T136
345Q136 233 154 168T215 75T333 46Q407 46 450 74T511 168T530 345Q530 457 512 522T450 615T333 644ZM257 875Q280 873 297 865T331 846T364 827T403 815Q433 812 444 825T455 870H487Q491 818 469 791T410 767Q376 770 353 784T309 812T263 828Q234 831 223
817T212 770H180Q177 806 186 830T214 866T257 875Z" />
<glyph unicode="&#xd6;" horiz-adv-x="666" d="M333 703Q407 703 458 685T540 625T585 514T599 345Q599 245 585 176T540 66T458 6T333 -13Q259 -13 208 5T126 65T81 176T66 345Q66 445 80 514T126 624T208 684T333 703ZM333 644Q259 644 216 616T154 522T136
345Q136 233 154 168T215 75T333 46Q407 46 450 74T511 168T530 345Q530 457 512 522T450 615T333 644ZM433 865Q452 865 452 846V790Q452 771 433 771H412Q393 771 393 790V846Q393 865 412 865H433ZM256 865Q275 865 275 846V790Q275 771 256 771H234Q216 771
216 790V846Q216 865 234 865H256Z" />
<glyph unicode="&#xd7;" horiz-adv-x="485" d="M407 467L53 149L85 110L439 429L407 467ZM85 467L53 428L407 110L439 149L85 467Z" />
<glyph unicode="&#xd8;" horiz-adv-x="666" d="M494 747L531 731L162 -56L125 -39L494 747ZM333 703Q407 703 458 685T540 625T585 514T599 345Q599 245 585 176T540 66T458 6T333 -13Q259 -13 208 5T126 65T81 176T66 345Q66 445 80 514T126 624T208 684T333
703ZM333 644Q259 644 216 616T154 522T136 345Q136 233 154 168T215 75T333 46Q407 46 450 74T511 168T530 345Q530 457 512 522T450 615T333 644Z" />
<glyph unicode="&#xd9;" horiz-adv-x="666" d="M579 690V261Q579 162 555 102T478 15T336 -13Q245 -13 191 14T112 102T88 261V690H153V261Q153 181 170 134T227 67T333 46Q399 46 438 66T495 134T513 261V690H579ZM221 907L385 761L361 731L183 859L221 907Z" />
<glyph unicode="&#xda;" horiz-adv-x="666" d="M579 690V261Q579 162 555 102T478 15T336 -13Q245 -13 191 14T112 102T88 261V690H153V261Q153 181 170 134T227 67T333 46Q399 46 438 66T495 134T513 261V690H579ZM436 912L474 863L296 736L272 766L436 912Z" />
<glyph unicode="&#xdb;" horiz-adv-x="666" d="M579 690V261Q579 162 555 102T478 15T336 -13Q245 -13 191 14T112 102T88 261V690H153V261Q153 181 170 134T227 67T333 46Q399 46 438 66T495 134T513 261V690H579ZM356 891L490 767L467 739L338 838H330L200 739L177
767L310 891H356Z" />
<glyph unicode="&#xdc;" horiz-adv-x="666" d="M579 690V261Q579 162 555 102T478 15T336 -13Q245 -13 191 14T112 102T88 261V690H153V261Q153 181 170 134T227 67T333 46Q399 46 438 66T495 134T513 261V690H579ZM433 865Q452 865 452 846V790Q452 771 433 771H412Q393
771 393 790V846Q393 865 412 865H433ZM256 865Q275 865 275 846V790Q275 771 256 771H234Q216 771 216 790V846Q216 865 234 865H256Z" />
<glyph unicode="&#xdd;" d="M543 690L308 240H251L15 690H85L243 384Q252 366 260 347T276 310H283Q290 328 299 347T316 383L473 690H543ZM312 291V0H246V291H312ZM381 905L419 856L241 729L217 759L381 905Z" />
<glyph unicode="&#xde;" horiz-adv-x="589" d="M325 563Q404 563 450 544T517 480T538 350Q538 266 518 220T453 156T330 137Q289 137 252 138T185 143T133 148T103 153L106 195Q157 195 213 195T323 195Q378 196 410 208T457 254T471 350Q471 413 457 446T411
493T323 506Q243 506 185 506T107 503L93 555Q130 559 162 560T232 562T325 563ZM158 690V0H93V690H158Z" />
<glyph unicode="&#xdf;" horiz-adv-x="666" d="M337 718Q411 718 460 707T532 669T556 593Q556 561 548 539T519 498T464 462Q428 446 403 435T366 410T354 366Q354 336 371 322T419 296L533 252Q564 240 584 225T614 186T625 125Q625 66 605 37T546 -1T454 -11Q422
-11 382 -9T292 0L296 48Q336 44 373 43T444 42Q485 43 511 48T549 71T562 127Q562 154 554 169T530 193T492 211L377 256Q339 271 316 296T293 365Q293 405 310 427T358 464T427 496Q466 514 481 534T497 591Q497 618 481 634T431 657T339 665Q280 665 246 654T197
615T182 533V0H118V539Q118 599 133 635T178 689T247 712T337 718ZM153 485V433H31V481L123 485H153Z" />
<glyph unicode="&#xe0;" horiz-adv-x="545" d="M310 497Q360 497 394 483T447 436T465 348V0H415L405 106L401 115V348Q401 394 380 418T298 442Q254 442 196 438T83 428L77 475Q111 481 149 485T228 493T310 497ZM432 296L431 248L194 246Q156 245 139 226T121
171V129Q121 88 142 68T206 48Q238 47 276 59T353 94T420 148V99Q408 84 386 66T334 31T269 3T195 -8Q153 -8 122 7T74 51T56 123V179Q56 235 89 265T184 296H432ZM158 726L322 580L298 550L120 678L158 726Z" />
<glyph unicode="&#xe1;" horiz-adv-x="545" d="M310 497Q360 497 394 483T447 436T465 348V0H415L405 106L401 115V348Q401 394 380 418T298 442Q254 442 196 438T83 428L77 475Q111 481 149 485T228 493T310 497ZM432 296L431 248L194 246Q156 245 139 226T121
171V129Q121 88 142 68T206 48Q238 47 276 59T353 94T420 148V99Q408 84 386 66T334 31T269 3T195 -8Q153 -8 122 7T74 51T56 123V179Q56 235 89 265T184 296H432ZM372 731L410 682L232 555L208 585L372 731Z" />
<glyph unicode="&#xe2;" horiz-adv-x="545" d="M310 497Q360 497 394 483T447 436T465 348V0H415L405 106L401 115V348Q401 394 380 418T298 442Q254 442 196 438T83 428L77 475Q111 481 149 485T228 493T310 497ZM432 296L431 248L194 246Q156 245 139 226T121
171V129Q121 88 142 68T206 48Q238 47 276 59T353 94T420 148V99Q408 84 386 66T334 31T269 3T195 -8Q153 -8 122 7T74 51T56 123V179Q56 235 89 265T184 296H432ZM293 710L427 586L404 558L275 657H267L137 558L114 586L247 710H293Z" />
<glyph unicode="&#xe3;" horiz-adv-x="545" d="M310 497Q360 497 394 483T447 436T465 348V0H415L405 106L401 115V348Q401 394 380 418T298 442Q254 442 196 438T83 428L77 475Q111 481 149 485T228 493T310 497ZM432 296L431 248L194 246Q156 245 139 226T121
171V129Q121 88 142 68T206 48Q238 47 276 59T353 94T420 148V99Q408 84 386 66T334 31T269 3T195 -8Q153 -8 122 7T74 51T56 123V179Q56 235 89 265T184 296H432ZM194 950Q217 948 234 940T268 921T301 902T340 890Q370 887 381 900T392 945H424Q428 893 406 866T347
842Q313 845 290 859T246 887T200 903Q171 906 160 892T149 845H117Q114 881 123 905T151 941T194 950Z" />
<glyph unicode="&#xe4;" horiz-adv-x="545" d="M310 497Q360 497 394 483T447 436T465 348V0H415L405 106L401 115V348Q401 394 380 418T298 442Q254 442 196 438T83 428L77 475Q111 481 149 485T228 493T310 497ZM432 296L431 248L194 246Q156 245 139 226T121
171V129Q121 88 142 68T206 48Q238 47 276 59T353 94T420 148V99Q408 84 386 66T334 31T269 3T195 -8Q153 -8 122 7T74 51T56 123V179Q56 235 89 265T184 296H432ZM370 940Q389 940 389 921V865Q389 846 370 846H349Q330 846 330 865V921Q330 940 349 940H370ZM193
940Q212 940 212 921V865Q212 846 193 846H171Q153 846 153 865V921Q153 940 171 940H193Z" />
<glyph unicode="&#xe5;" horiz-adv-x="545" d="M310 497Q360 497 394 483T447 436T465 348V0H415L405 106L401 115V348Q401 394 380 418T298 442Q254 442 196 438T83 428L77 475Q111 481 149 485T228 493T310 497ZM432 296L431 248L194 246Q156 245 139 226T121
171V129Q121 88 142 68T206 48Q238 47 276 59T353 94T420 148V99Q408 84 386 66T334 31T269 3T195 -8Q153 -8 122 7T74 51T56 123V179Q56 235 89 265T184 296H432ZM271 998Q299 998 322 985T360 948T374 897Q374 870 360 847T323 809T271 795Q243 795 219 808T181
845T167 897Q167 925 181 948T219 984T271 998ZM271 963Q243 963 225 945T206 897Q206 867 224 849T271 831Q299 831 317 849T336 897Q336 926 318 944T271 963Z" />
<glyph unicode="&#xe6;" horiz-adv-x="874" d="M618 497Q722 497 771 459T821 346Q821 300 808 270T765 226T688 211H427V261H674Q722 261 740 283T756 345Q756 395 724 418T621 442Q563 442 529 424T481 364T467 248Q467 167 484 123T538 61T635 43Q678 43 723
46T802 55L809 12Q789 4 757 -1T689 -9T627 -12Q546 -12 496 13T424 95T401 244Q401 339 423 394T493 473T618 497ZM432 296L431 248L194 246Q156 245 139 226T121 171V129Q121 88 142 68T206 48Q239 47 279 59T360 96T430 154V104Q417 89 394 70T340 33T272 4T195
-8Q153 -8 122 7T74 51T56 123V179Q56 235 89 265T184 296H432ZM310 497Q360 497 394 483T447 436T465 348V235H401V348Q401 394 380 418T298 442Q254 442 196 438T83 428L77 475Q111 481 149 485T228 493T310 497Z" />
<glyph unicode="&#xe7;" horiz-adv-x="485" d="M287 497Q307 497 333 495T386 489T436 476L427 434Q396 438 359 440T297 442Q234 442 197 425T143 364T126 243Q126 166 142 122T196 61T297 43Q312 43 336 44T387 47T438 53L446 10Q410 -1 369 -6T286 -12Q204
-12 154 13T82 93T59 243Q59 336 81 392T154 472T287 497ZM243 -57Q277 -54 299 -59T332 -79T342 -122Q341 -161 321 -189T266 -230T185 -237L195 -203Q240 -204 267 -182T295 -127Q295 -105 283 -97T236 -88L243 -57Z" />
<glyph unicode="&#xe8;" horiz-adv-x="533" d="M277 497Q381 497 429 459T479 346Q480 281 454 246T367 211H86V261H353Q390 261 403 285T415 345Q414 397 382 419T280 442Q222 442 188 424T140 364T126 248Q126 167 143 123T197 61T294 43Q336 43 381 46T461
55L468 12Q447 4 415 -1T348 -9T286 -12Q204 -12 155 13T82 95T59 244Q59 339 81 394T152 473T277 497ZM166 726L330 580L306 550L128 678L166 726Z" />
<glyph unicode="&#xe9;" horiz-adv-x="533" d="M277 497Q381 497 429 459T479 346Q480 281 454 246T367 211H86V261H353Q390 261 403 285T415 345Q414 397 382 419T280 442Q222 442 188 424T140 364T126 248Q126 167 143 123T197 61T294 43Q336 43 381 46T461
55L468 12Q447 4 415 -1T348 -9T286 -12Q204 -12 155 13T82 95T59 244Q59 339 81 394T152 473T277 497ZM381 731L419 682L241 555L217 585L381 731Z" />
<glyph unicode="&#xea;" horiz-adv-x="533" d="M277 497Q381 497 429 459T479 346Q480 281 454 246T367 211H86V261H353Q390 261 403 285T415 345Q414 397 382 419T280 442Q222 442 188 424T140 364T126 248Q126 167 143 123T197 61T294 43Q336 43 381 46T461
55L468 12Q447 4 415 -1T348 -9T286 -12Q204 -12 155 13T82 95T59 244Q59 339 81 394T152 473T277 497ZM302 710L436 586L413 558L284 657H276L146 558L123 586L256 710H302Z" />
<glyph unicode="&#xeb;" horiz-adv-x="533" d="M277 497Q381 497 429 459T479 346Q480 281 454 246T367 211H86V261H353Q390 261 403 285T415 345Q414 397 382 419T280 442Q222 442 188 424T140 364T126 248Q126 167 143 123T197 61T294 43Q336 43 381 46T461
55L468 12Q447 4 415 -1T348 -9T286 -12Q204 -12 155 13T82 95T59 244Q59 339 81 394T152 473T277 497ZM379 940Q398 940 398 921V865Q398 846 379 846H358Q339 846 339 865V921Q339 940 358 940H379ZM202 940Q221 940 221 921V865Q221 846 202 846H180Q162 846
162 865V921Q162 940 180 940H202Z" />
<glyph unicode="&#xec;" horiz-adv-x="239" d="M151 485V0H88V485H151ZM262 727L426 581L402 551L224 679L262 727Z" />
<glyph unicode="&#xed;" horiz-adv-x="239" d="M151 485V0H88V485H151ZM221 732L259 683L81 556L57 586L221 732Z" />
<glyph unicode="&#xee;" horiz-adv-x="239" d="M151 485V0H88V485H151ZM397 710L531 586L508 558L379 657H371L241 558L218 586L351 710H397Z" />
<glyph unicode="&#xef;" horiz-adv-x="239" d="M151 485V0H88V485H151ZM474 940Q493 940 493 921V865Q493 846 474 846H453Q434 846 434 865V921Q434 940 453 940H474ZM297 940Q316 940 316 921V865Q316 846 297 846H275Q257 846 257 865V921Q257 940 275 940H297Z" />
<glyph unicode="&#xf0;" horiz-adv-x="555" d="M127 698Q174 700 225 690T322 654T405 581T463 460T485 282Q485 219 478 166T448 72T384 10T273 -13Q165 -13 113 42T60 220Q60 291 80 342T144 420T263 447Q291 447 321 442T383 421T447 377L440 348Q394 374 355
384T270 394Q215 394 184 373T140 312T127 219Q127 122 163 82T274 42Q338 42 369 71T410 155T420 287Q420 386 401 452T349 558T277 619T196 646T118 652L127 698ZM413 707L437 676L237 528L213 558L413 707Z" />
<glyph unicode="&#xf1;" horiz-adv-x="577" d="M365 497Q496 497 496 364V0H433V347Q433 399 413 420T349 442Q300 442 253 419T141 354L138 401Q197 447 253 472T365 497ZM137 485L142 393L147 378V0H84V485H137ZM223 950Q246 948 263 940T297 921T330 902T369
890Q399 887 410 900T421 945H453Q457 893 435 866T376 842Q342 845 319 859T275 887T229 903Q200 906 189 892T178 845H146Q143 881 152 905T180 941T223 950Z" />
<glyph unicode="&#xf2;" horiz-adv-x="565" d="M283 497Q364 497 413 472T483 391T505 242Q505 149 484 93T413 12T283 -13Q202 -13 153 12T82 93T60 242Q60 335 82 391T153 472T283 497ZM283 442Q224 442 190 424T142 363T127 242Q127 166 141 122T190 60T283
42Q341 42 375 60T424 122T439 242Q439 319 425 362T376 424T283 442ZM170 723L334 577L310 547L132 675L170 723Z" />
<glyph unicode="&#xf3;" horiz-adv-x="565" d="M283 497Q364 497 413 472T483 391T505 242Q505 149 484 93T413 12T283 -13Q202 -13 153 12T82 93T60 242Q60 335 82 391T153 472T283 497ZM283 442Q224 442 190 424T142 363T127 242Q127 166 141 122T190 60T283
42Q341 42 375 60T424 122T439 242Q439 319 425 362T376 424T283 442ZM384 728L422 679L244 552L220 582L384 728Z" />
<glyph unicode="&#xf4;" horiz-adv-x="565" d="M283 497Q364 497 413 472T483 391T505 242Q505 149 484 93T413 12T283 -13Q202 -13 153 12T82 93T60 242Q60 335 82 391T153 472T283 497ZM283 442Q224 442 190 424T142 363T127 242Q127 166 141 122T190 60T283
42Q341 42 375 60T424 122T439 242Q439 319 425 362T376 424T283 442ZM305 963L439 839L416 811L287 910H279L149 811L126 839L259 963H305Z" />
<glyph unicode="&#xf5;" horiz-adv-x="565" d="M283 497Q364 497 413 472T483 391T505 242Q505 149 484 93T413 12T283 -13Q202 -13 153 12T82 93T60 242Q60 335 82 391T153 472T283 497ZM283 442Q224 442 190 424T142 363T127 242Q127 166 141 122T190 60T283
42Q341 42 375 60T424 122T439 242Q439 319 425 362T376 424T283 442ZM206 947Q229 945 246 937T280 918T313 899T352 887Q382 884 393 897T404 942H436Q440 890 418 863T359 839Q325 842 302 856T258 884T212 900Q183 903 172 889T161 842H129Q126 878 135 902T163
938T206 947Z" />
<glyph unicode="&#xf6;" horiz-adv-x="565" d="M283 497Q364 497 413 472T483 391T505 242Q505 149 484 93T413 12T283 -13Q202 -13 153 12T82 93T60 242Q60 335 82 391T153 472T283 497ZM283 442Q224 442 190 424T142 363T127 242Q127 166 141 122T190 60T283
42Q341 42 375 60T424 122T439 242Q439 319 425 362T376 424T283 442ZM382 938Q401 938 401 919V863Q401 844 382 844H361Q342 844 342 863V919Q342 938 361 938H382ZM205 938Q224 938 224 919V863Q224 844 205 844H183Q165 844 165 863V919Q165 938 183 938H205Z"
/>
<glyph unicode="&#xf7;" horiz-adv-x="577" d="M504 320V271H73V320H504ZM296 176Q309 176 315 171T321 151V98Q321 84 315 79T296 73H278Q265 73 260 78T254 98V151Q254 165 259 170T278 176H296ZM296 517Q309 517 315 511T321 492V438Q321 425 315 420T296 414H278Q265
414 260 419T254 438V492Q254 505 259 511T278 517H296Z" />
<glyph unicode="&#xf8;" horiz-adv-x="565" d="M405 553L437 537L153 -70L122 -55L405 553ZM283 497Q364 497 413 472T483 391T505 242Q505 149 484 93T413 12T283 -13Q202 -13 153 12T82 93T60 242Q60 335 82 391T153 472T283 497ZM283 442Q224 442 190 424T142
363T127 242Q127 166 141 122T190 60T283 42Q341 42 375 60T424 122T439 242Q439 319 425 362T376 424T283 442Z" />
<glyph unicode="&#xf9;" horiz-adv-x="566" d="M144 485V137Q143 87 164 65T233 43Q278 43 321 65T426 128L433 82Q375 35 321 11T212 -13Q81 -13 81 120V485H144ZM482 485V0H432L426 91L419 106V485H482ZM170 728L334 582L310 552L132 680L170 728Z" />
<glyph unicode="&#xfa;" horiz-adv-x="566" d="M144 485V137Q143 87 164 65T233 43Q278 43 321 65T426 128L433 82Q375 35 321 11T212 -13Q81 -13 81 120V485H144ZM482 485V0H432L426 91L419 106V485H482ZM384 733L422 684L244 557L220 587L384 733Z" />
<glyph unicode="&#xfb;" horiz-adv-x="566" d="M144 485V137Q143 87 164 65T233 43Q278 43 321 65T426 128L433 82Q375 35 321 11T212 -13Q81 -13 81 120V485H144ZM482 485V0H432L426 91L419 106V485H482ZM305 712L439 588L416 560L287 659H279L149 560L126 588L259
712H305Z" />
<glyph unicode="&#xfc;" horiz-adv-x="566" d="M144 485V137Q143 87 164 65T233 43Q278 43 321 65T426 128L433 82Q375 35 321 11T212 -13Q81 -13 81 120V485H144ZM482 485V0H432L426 91L419 106V485H482ZM382 686Q401 686 401 667V611Q401 592 382 592H361Q342
592 342 611V667Q342 686 361 686H382ZM205 686Q224 686 224 667V611Q224 592 205 592H183Q165 592 165 611V667Q165 686 183 686H205Z" />
<glyph unicode="&#xfd;" horiz-adv-x="521" d="M498 485L294 -34Q282 -65 266 -94T226 -147T173 -187T102 -207L94 -166Q154 -146 185 -111T236 -27L258 27Q266 46 273 67T288 107L430 485H498ZM90 485L233 106Q238 92 243 78T253 50H274L253 0H230Q222 0 216
4T206 17L22 485H90ZM364 732L402 683L224 556L200 586L364 732Z" />
<glyph unicode="&#xfe;" horiz-adv-x="570" d="M333 497Q428 497 467 437T507 240Q507 147 489 92T432 12T331 -13Q280 -13 229 1T129 44L140 85Q192 64 232 53T313 41Q360 41 388 60T429 122T442 241Q442 316 429 360T389 422T315 441Q274 441 234 422T143 364L131
408Q178 450 227 473T333 497ZM147 700V518Q147 490 147 466T144 415L147 403V59L144 47Q147 19 147 -5T147 -57V-204H84V700H147Z" />
<glyph unicode="&#xff;" horiz-adv-x="521" d="M498 485L294 -34Q282 -65 266 -94T226 -147T173 -187T102 -207L94 -166Q154 -146 185 -111T236 -27L258 27Q266 46 273 67T288 107L430 485H498ZM90 485L233 106Q238 92 243 78T253 50H274L253 0H230Q222 0 216
4T206 17L22 485H90ZM362 940Q381 940 381 921V865Q381 846 362 846H341Q322 846 322 865V921Q322 940 341 940H362ZM185 940Q204 940 204 921V865Q204 846 185 846H163Q145 846 145 865V921Q145 940 163 940H185Z" />
<glyph unicode="&#x2013;" horiz-adv-x="603" d="M526 277V227H77V277H526Z" />
<glyph unicode="&#x2014;" horiz-adv-x="909" d="M832 277V227H77V277H832Z" />
<glyph unicode="&#x2018;" horiz-adv-x="210" d="M95 508Q82 508 77 513T71 532V592Q72 616 75 640T85 687T100 730L130 721Q126 692 124 669T122 609Q141 609 140 589L139 532Q139 519 133 514T115 508H95Z" />
<glyph unicode="&#x2019;" horiz-adv-x="207" d="M114 722Q127 722 132 717T138 698V637Q137 613 134 590T125 543T109 499L80 508Q83 538 85 561T87 620Q69 620 69 640L70 698Q70 711 76 716T95 722H114Z" />
<glyph unicode="&#x201a;" horiz-adv-x="221" d="M121 102Q135 102 140 97T146 79V18Q146 -6 142 -30T132 -77T116 -120L86 -111Q90 -82 92 -59T94 1Q75 1 76 21V79Q76 92 82 97T101 102H121Z" />
<glyph unicode="&#x201c;" horiz-adv-x="348" d="M95 508Q82 508 77 513T71 532V592Q72 616 75 640T85 687T100 730L130 721Q126 692 124 669T122 609Q141 609 140 589L139 532Q139 519 133 514T115 508H95ZM234 508Q221 508 216 513T210 532L211 592Q211 616
214 640T224 687T239 730L269 721Q265 692 263 669T261 609Q280 609 279 589V532Q278 519 272 514T254 508H234Z" />
<glyph unicode="&#x201d;" horiz-adv-x="346" d="M253 722Q267 722 272 717T277 698V637Q276 613 273 590T264 543T248 499L219 508Q223 538 224 561T226 620Q208 620 209 640V698Q209 711 215 716T234 722H253ZM114 722Q127 722 132 717T138 698V637Q137 613
134 590T125 543T109 499L80 508Q83 538 85 561T87 620Q69 620 69 640L70 698Q70 711 76 716T95 722H114Z" />
<glyph unicode="&#x201e;" horiz-adv-x="360" d="M259 102Q273 102 278 97T284 79L283 18Q283 -6 280 -30T270 -77T255 -120L225 -111Q229 -82 231 -59T233 1Q214 1 215 21V79Q216 92 222 97T240 102H259ZM120 102Q134 102 139 97T145 79L144 18Q144 -6 141 -30T131
-77T116 -120L86 -111Q90 -82 91 -59T93 1Q75 1 76 21V79Q76 92 82 97T101 102H120Z" />
<glyph unicode="&#x2022;" horiz-adv-x="359" d="M186 351Q229 351 245 334T262 274V263Q262 218 246 201T186 184H175Q130 184 113 201T96 263V274Q96 317 113 334T175 351H186Z" />
<glyph unicode="&#x2039;" horiz-adv-x="264" d="M192 457L225 434L91 251L226 64L193 41L31 243V259L192 457Z" />
<glyph unicode="&#x203a;" horiz-adv-x="265" d="M71 457L233 259V243L70 41L38 64L172 251L39 434L71 457Z" />
</font>
</defs>
</svg>
