<?xml version="1.0" standalone="no"?>
<!DOCTYPE svg PUBLIC "-//W3C//DTD SVG 1.1//EN" "http://www.w3.org/Graphics/SVG/1.1/DTD/svg11.dtd">
<svg xmlns="http://www.w3.org/2000/svg">
<defs >
<font id="Jura" horiz-adv-x="1112" ><font-face
    font-family="Jura Light"
    units-per-em="2000"
    panose-1="0 0 0 0 0 0 0 0 0 0"
    ascent="1930"
    descent="-436"
    alphabetic="0" />
<glyph unicode=" " horiz-adv-x="628" />
<glyph unicode="!" horiz-adv-x="540" d="M272 252Q188 252 188 336V1326Q188 1410 272 1410Q356 1410 356 1326V336Q356 252 272 252ZM248 0Q168 0 168 80V130Q168 208 248 208H296Q372 208 372 130V80Q372 0 296 0H248Z" />
<glyph unicode="&quot;" horiz-adv-x="796" d="M238 898Q210 898 189 919T168 968V1376Q168 1405 189 1425T238 1446Q267 1446 287 1426T308 1376V968Q308 940 288 919T238 898ZM558 898Q530 898 509 919T488 968V1376Q488 1405 509 1425T558 1446Q587 1446 607
1426T628 1376V968Q628 940 608 919T558 898Z" />
<glyph unicode="#" horiz-adv-x="1242" d="M260 -26Q232 -26 211 -5T190 44Q190 49 190 54T192 64L286 396H158Q130 396 109 417T88 466Q88 495 109 515T158 536H324L398 796H270Q242 796 221 817T200 866Q200 895 221 915T270 936H436L532 1284Q538 1306 557
1321T600 1336Q629 1336 649 1316T670 1266Q670 1262 670 1257T668 1246L580 936H796L892 1284Q898 1306 917 1321T960 1336Q989 1336 1009 1316T1030 1266Q1030 1262 1030 1257T1028 1246L940 936H1124Q1153 936 1173 916T1194 866Q1194 838 1174 817T1124 796H902L832
536H1012Q1041 536 1061 516T1082 466Q1082 438 1062 417T1012 396H790L688 26Q682 4 663 -11T620 -26Q592 -26 571 -5T550 44Q550 49 550 54T552 64L646 396H430L328 26Q322 4 303 -11T260 -26ZM472 536H684L758 796H542L472 536Z" />
<glyph unicode="$" horiz-adv-x="1344" d="M534 0Q342 0 251 92T160 374Q160 407 185 432T244 458Q277 458 302 433T328 374Q328 253 372 211T534 168H810Q929 168 972 210T1016 374Q1016 496 973 538T810 580H564Q383 580 295 664T206 928Q206 1110 294 1197T562
1284H804Q984 1284 1072 1197T1160 930Q1160 897 1135 872T1076 846Q1043 846 1018 871T992 930Q992 1040 954 1078T804 1116H562Q451 1116 413 1078T374 928Q374 819 413 784T564 748H810Q999 748 1091 656T1184 374Q1184 185 1092 93T810 0H534ZM672 -180Q602
-180 602 -110V622L614 710V1420Q614 1490 684 1490Q754 1490 754 1420V702L742 626V-110Q742 -180 672 -180Z" />
<glyph unicode="%" horiz-adv-x="1756" d="M414 632Q270 632 199 704T128 920V1070Q128 1214 199 1285T414 1356H446Q590 1356 661 1285T732 1070V922Q732 777 661 705T446 632H414ZM284 920Q284 841 310 816T414 790H446Q524 790 550 815T576 922V1070Q576 1148
550 1173T446 1198H414Q336 1198 310 1173T284 1070V920ZM1310 0Q1166 0 1095 71T1024 286V436Q1024 582 1095 652T1310 722H1342Q1486 722 1557 651T1628 436V288Q1628 143 1557 72T1342 0H1310ZM1180 286Q1180 208 1206 182T1310 156H1342Q1420 156 1446 182T1472
288V436Q1472 514 1446 540T1342 566H1310Q1232 566 1206 541T1180 436V286ZM414 -40Q380 -40 355 -15T330 44Q330 58 334 72T346 96L1268 1316Q1295 1350 1336 1350Q1371 1350 1395 1326T1420 1266Q1420 1253 1416 1239T1404 1214L482 -6Q455 -40 414 -40Z" />
<glyph unicode="&amp;" horiz-adv-x="1300" d="M1234 46Q1180 -18 1116 40L442 640Q371 702 332 753T276 856T260 976Q260 1143 341 1225T590 1308H640Q784 1308 864 1249T966 1066Q971 1023 949 1001T884 978Q844 978 825 999T794 1060Q782 1108 747 1124T640
1140H590Q496 1140 462 1108T428 976Q428 935 437 906T474 844T554 764L1228 166Q1291 109 1234 46ZM566 -42Q337 -42 229 66T120 404Q120 565 172 666T334 812Q373 829 405 810T444 752Q452 713 433 689T378 648Q329 620 309 563T288 404Q288 297 313 237T398
151T566 126H630Q736 126 796 151T882 237T908 404V474Q908 558 992 558Q1076 558 1076 474V404Q1076 176 967 67T630 -42H566Z" />
<glyph unicode="&apos;" horiz-adv-x="476" d="M238 898Q210 898 189 919T168 968V1376Q168 1405 189 1425T238 1446Q267 1446 287 1426T308 1376V968Q308 940 288 919T238 898Z" />
<glyph unicode="(" horiz-adv-x="596" d="M506 -350Q310 -350 219 -239T128 108V878Q128 1124 219 1240T506 1356Q535 1356 555 1336T576 1286Q576 1258 556 1237T506 1216Q417 1216 365 1185T291 1080T268 878V108Q268 -73 320 -141T506 -210Q535 -210 555 -230T576
-280Q576 -308 556 -329T506 -350Z" />
<glyph unicode=")" horiz-adv-x="596" d="M90 -350Q62 -350 41 -329T20 -280Q20 -251 41 -231T90 -210Q224 -210 276 -142T328 108V878Q328 1006 306 1080T231 1185T90 1216Q62 1216 41 1237T20 1286Q20 1315 41 1335T90 1356Q287 1356 377 1240T468 878V108Q468
-127 378 -238T90 -350Z" />
<glyph unicode="*" horiz-adv-x="804" d="M402 702Q330 702 330 772V940L396 902L252 818Q224 802 198 809T154 844Q119 904 182 938L330 1024V950L182 1032Q151 1050 145 1076T154 1128Q171 1157 197 1163T252 1152L396 1068L330 1030V1200Q330 1270 402 1270Q470
1270 470 1200V1028L404 1066L552 1152Q610 1185 646 1128Q683 1067 622 1032L474 950V1024L622 938Q683 903 646 844Q609 785 552 818L404 904L470 942V772Q470 702 402 702Z" />
<glyph unicode="+" horiz-adv-x="1218" d="M558 1036Q558 1106 628 1106Q698 1106 698 1036V294Q698 224 628 224Q558 224 558 294V1036ZM238 584Q168 584 168 654Q168 724 238 724H980Q1050 724 1050 654Q1050 584 980 584H238ZM238 584Q168 584 168 654Q168
724 238 724H980Q1050 724 1050 654Q1050 584 980 584H238Z" />
<glyph unicode="," horiz-adv-x="516" d="M158 -254Q122 -254 103 -236T88 -184L144 135Q147 208 224 208H272Q348 208 348 130V80Q348 63 343 47T329 14L224 -210Q200 -254 158 -254Z" />
<glyph unicode="-" horiz-adv-x="1028" d="M238 470Q210 470 189 491T168 540Q168 569 189 589T238 610H790Q819 610 839 590T860 540Q860 512 840 491T790 470H238Z" />
<glyph unicode="." horiz-adv-x="540" d="M248 0Q168 0 168 80V130Q168 208 248 208H296Q372 208 372 130V80Q372 0 296 0H248Z" />
<glyph unicode="/" horiz-adv-x="644" d="M158 -306Q110 -306 87 -276T76 -198L486 1394Q507 1460 568 1460Q616 1460 639 1430T648 1352L240 -240Q222 -306 158 -306Z" />
<glyph unicode="0" horiz-adv-x="1368" d="M624 2Q395 2 286 111T176 450V912Q176 1143 285 1252T624 1358H744Q974 1358 1083 1250T1192 910V450Q1192 221 1083 112T744 2H624ZM624 170H744Q851 170 912 196T998 283T1024 450V910Q1024 1017 999 1078T912 1164T744
1190H624Q518 1192 457 1168T370 1082T344 912V450Q344 344 369 283T456 196T624 170ZM660 582Q580 582 580 662V712Q580 790 660 790H708Q784 790 784 712V662Q784 582 708 582H660Z" />
<glyph unicode="1" horiz-adv-x="778" d="M494 0Q410 0 410 84V1116L456 1148L236 942Q211 918 183 914T128 936Q74 990 134 1050L402 1314Q444 1356 506 1356Q578 1356 578 1272V84Q578 0 494 0Z" />
<glyph unicode="2" horiz-adv-x="1150" d="M942 0H194Q108 0 108 84Q108 218 150 312T259 472T401 583T540 666Q651 729 725 775T837 869T874 986Q874 1105 832 1146T672 1188H458Q364 1188 319 1163T262 1070Q255 1030 235 1009T174 988Q132 988 110 1010T92
1076Q113 1217 203 1286T458 1356H672Q860 1356 951 1265T1042 986Q1042 866 983 786T828 644T622 520Q542 474 471 428T349 321T282 168H942Q1026 168 1026 84Q1026 0 942 0Z" />
<glyph unicode="3" horiz-adv-x="1308" d="M514 0Q339 0 244 73T128 300Q124 342 146 365T210 388Q287 388 296 304Q310 226 359 197T514 168H742Q871 168 917 214T964 388Q964 514 918 561T742 608H588Q504 608 504 692Q504 776 588 776H818Q881 776 906 832T932
986Q932 1105 890 1146T730 1188H536Q442 1188 397 1163T340 1070Q328 988 252 988Q210 988 188 1010T172 1076Q192 1217 282 1286T536 1356H730Q918 1356 1009 1265T1100 986Q1100 801 996 724Q1065 679 1098 596T1132 388Q1132 190 1037 95T742 0H514Z" />
<glyph unicode="4" horiz-adv-x="1246" d="M874 0Q790 0 790 84L792 1160L858 1208L266 406L252 448L1074 452Q1115 452 1136 428T1158 368Q1158 284 1074 284H172Q88 284 88 368Q88 408 122 456L750 1304Q776 1339 803 1347T868 1356Q960 1356 960 1272L958 84Q958
0 874 0Z" />
<glyph unicode="5" horiz-adv-x="1336" d="M562 0Q387 0 292 73T176 300Q172 342 194 365T258 388Q335 388 344 306Q358 228 407 198T562 168H770Q899 168 945 215T992 390V528Q992 657 945 703T770 750H622Q474 750 408 714Q378 696 354 687T296 688L276 694Q206
714 206 788V1272Q206 1356 290 1356H1076Q1160 1356 1160 1272Q1160 1188 1076 1188H374V882Q476 918 622 918H770Q968 918 1064 822T1160 528V390Q1160 192 1064 96T770 0H562Z" />
<glyph unicode="6" horiz-adv-x="1340" d="M566 0Q367 0 272 95T176 388V986Q176 1174 267 1265T546 1356H794Q958 1356 1048 1287T1158 1076Q1164 1033 1142 1011T1078 988Q1002 988 990 1070Q978 1138 934 1163T794 1188H546Q428 1188 386 1146T344 986V820Q422
914 566 914H774Q972 914 1068 818T1164 524V390Q1164 191 1068 96T774 0H566ZM566 168H774Q903 168 949 215T996 390V524Q996 653 949 699T774 746H566Q437 746 391 699T344 526V388Q344 261 390 215T566 168Z" />
<glyph unicode="7" horiz-adv-x="1062" d="M392 0Q307 0 310 88Q313 242 330 350T382 537T473 676T612 794Q672 841 712 897T775 1024T804 1188H172Q88 1188 88 1272Q88 1356 172 1356H890Q974 1356 974 1272Q974 1129 947 1017T861 816T710 658Q644 612 600 565T530
455T492 304T478 88Q475 0 392 0Z" />
<glyph unicode="8" horiz-adv-x="1360" d="M1016 704Q1184 610 1184 388Q1184 190 1089 95T794 0H566Q367 0 272 95T176 388Q176 617 350 708Q218 807 218 992Q218 1177 309 1266T588 1356H782Q970 1356 1061 1267T1152 992Q1152 799 1016 704ZM588 1188Q470 1188
428 1147T386 992Q386 866 425 821T556 776L784 774Q870 774 913 799T970 873T984 992Q984 1105 943 1146T782 1188H588ZM794 168Q923 168 969 214T1016 388Q1016 516 970 562T794 608H566Q437 608 391 562T344 388Q344 261 390 215T566 168H794Z" />
<glyph unicode="9" horiz-adv-x="1340" d="M774 1356Q974 1356 1069 1261T1164 968V370Q1164 183 1073 92T794 0H546Q383 0 293 69T182 280Q176 324 198 346T262 368Q338 368 350 286Q362 219 407 194T546 168H794Q913 168 954 210T996 370V536Q918 442 774 442H566Q368
442 272 538T176 832V966Q176 1166 272 1261T566 1356H774ZM774 1188H566Q437 1188 391 1141T344 966V832Q344 703 391 657T566 610H774Q903 610 949 657T996 830V968Q996 1096 950 1142T774 1188Z" />
<glyph unicode=":" horiz-adv-x="540" d="M248 0Q168 0 168 80V130Q168 208 248 208H296Q372 208 372 130V80Q372 0 296 0H248ZM248 660Q168 660 168 740V790Q168 868 248 868H296Q372 868 372 790V740Q372 660 296 660H248Z" />
<glyph unicode=";" horiz-adv-x="516" d="M158 -254Q122 -254 103 -236T88 -184L144 135Q147 208 224 208H272Q348 208 348 130V80Q348 63 343 47T329 14L224 -210Q200 -254 158 -254ZM224 660Q144 660 144 740V790Q144 868 224 868H272Q348 868 348 790V740Q348
660 272 660H224Z" />
<glyph unicode="&lt;" horiz-adv-x="1218" d="M962 286Q927 224 862 258L298 574Q248 603 248 660Q248 707 298 736L862 1050Q925 1083 962 1022Q995 958 932 922L400 628V684L934 384Q996 347 962 286Z" />
<glyph unicode="=" horiz-adv-x="1218" d="M238 708Q168 708 168 778Q168 848 238 848H980Q1050 848 1050 778Q1050 708 980 708H238ZM238 708Q168 708 168 778Q168 848 238 848H980Q1050 848 1050 778Q1050 708 980 708H238Z" />
<glyph unicode="&gt;" horiz-adv-x="1218" d="M254 286Q220 347 282 384L816 684V628L284 922Q221 958 254 1022Q291 1083 354 1050L918 736Q968 707 968 660Q968 603 918 574L354 258Q289 224 254 286Z" />
<glyph unicode="?" horiz-adv-x="1022" d="M476 332Q392 332 392 416Q392 522 428 586T516 687T610 748Q654 774 684 796T730 850T746 938Q746 1057 705 1098T544 1140H410Q292 1140 250 1097T208 938Q208 854 124 854Q40 854 40 938Q40 1124 132 1216T410 1308H544Q732
1308 823 1217T914 938Q914 832 878 768T790 667T696 606Q652 580 622 558T576 504T560 416Q560 332 476 332ZM452 0Q372 0 372 80V130Q372 208 452 208H500Q576 208 576 130V80Q576 0 500 0H452Z" />
<glyph unicode="@" horiz-adv-x="1482" d="M1282 58Q1179 -28 1030 -28H480Q314 -29 237 50T160 300V806Q160 977 237 1056T480 1134H1000Q1170 1134 1246 1056T1322 804V434Q1322 334 1270 287T1110 240Q1050 240 1008 260T940 338Q897 277 837 257T702 236H688Q549
236 482 303T414 508V554Q414 698 481 765T686 832H768Q813 832 848 821T914 768Q925 809 939 820T970 832Q997 832 1018 811T1040 762V434Q1040 395 1049 388T1110 380Q1163 380 1172 389T1182 434V804Q1182 881 1167 922T1113 978T1000 994H480Q372 996 336 959T300
806V300Q300 185 336 148T480 112H1030Q1086 112 1120 124T1192 166Q1208 182 1236 182Q1265 182 1285 162T1306 112Q1306 79 1282 58ZM554 508Q554 427 580 402T688 376H702Q807 376 853 409T900 508V552Q900 641 876 666T768 692H686Q605 692 580 667T554 554V508Z"
/>
<glyph unicode="A" horiz-adv-x="1332" d="M144 8Q64 39 96 118L572 1290Q602 1356 666 1356H670Q735 1353 758 1290L1242 118Q1274 39 1196 8Q1117 -23 1086 54L978 316H355L252 54Q221 -24 144 8ZM421 484H909L660 1090L421 484Z" />
<glyph unicode="B" horiz-adv-x="1346" d="M292 0Q208 0 208 84V1272Q208 1356 292 1356H814Q973 1356 1058 1272T1144 1032V978Q1144 843 1059 769Q1218 680 1218 444V376Q1218 192 1121 96T840 0H292ZM376 168H840Q953 168 1001 216T1050 376V444Q1050 555 1003
602T840 650H376V168ZM376 818H850Q923 818 949 863T976 978V1032Q976 1119 940 1153T814 1188H376V818Z" />
<glyph unicode="C" horiz-adv-x="1392" d="M608 0Q379 0 270 109T160 448V908Q160 1139 269 1248T606 1356H848Q1036 1356 1135 1279T1250 1034Q1256 992 1234 970T1170 948Q1094 948 1082 1032Q1072 1124 1019 1156T848 1188H606Q500 1189 440 1164T354 1078T328
908V448Q328 341 353 280T440 194T608 168H848Q965 168 1018 200T1082 324Q1094 408 1170 408Q1212 408 1234 386T1250 322Q1234 154 1135 77T848 0H608Z" />
<glyph unicode="D" horiz-adv-x="1442" d="M292 0Q208 0 208 84V1272Q208 1356 292 1356H774Q1035 1356 1158 1233T1282 848V508Q1282 247 1160 124T774 0H292ZM376 168H774Q902 168 976 199T1082 305T1114 508V848Q1114 975 1083 1049T977 1156T774 1188H376V168Z" />
<glyph unicode="E" horiz-adv-x="1206" d="M292 0Q208 0 208 84V1272Q208 1356 292 1356H1010Q1094 1356 1094 1272Q1094 1188 1010 1188H376V768H774Q858 768 858 684Q858 600 774 600H376V168H1010Q1094 168 1094 84Q1094 0 1010 0H292Z" />
<glyph unicode="F" d="M292 0Q208 0 208 84V1272Q208 1356 292 1356H1028Q1067 1356 1089 1334T1112 1272Q1112 1188 1028 1188H376V768H778Q862 768 862 684Q862 600 778 600H376V84Q376 0 292 0Z" />
<glyph unicode="G" horiz-adv-x="1397" d="M608 0Q379 0 270 109T160 448V908Q160 1139 269 1248T606 1356H848Q1036 1356 1135 1279T1250 1034Q1256 992 1234 970T1170 948Q1094 948 1082 1032Q1072 1124 1019 1156T848 1188H606Q500 1189 440 1164T354 1078T328
908V448Q328 341 353 280T440 194T608 168H848Q941 168 993 188T1067 261T1088 408V502L932 504Q848 504 848 588Q848 672 932 672L1172 670Q1256 670 1256 586V408Q1256 195 1157 98T848 0H608Z" />
<glyph unicode="H" horiz-adv-x="1568" d="M292 0Q259 0 234 25T208 84V1272Q208 1305 233 1330T292 1356Q325 1356 350 1331T376 1272V770H1192V1272Q1192 1305 1217 1330T1276 1356Q1309 1356 1334 1331T1360 1272V84Q1360 51 1335 26T1276 0Q1242 0 1217 25T1192
84V602H376V84Q376 51 351 26T292 0Z" />
<glyph unicode="I" horiz-adv-x="584" d="M292 0Q249 0 229 20T208 84V1270Q208 1314 228 1334T292 1354Q336 1354 356 1334T376 1270V84Q376 41 356 21T292 0Z" />
<glyph unicode="J" horiz-adv-x="1244" d="M472 0Q285 0 186 77T68 320Q64 362 86 385T150 408Q227 408 236 324Q248 233 301 201T472 168H638Q731 168 783 189T857 262T878 408V1272Q878 1356 962 1356Q1046 1356 1046 1272V408Q1046 197 947 99T638 0H472Z" />
<glyph unicode="K" horiz-adv-x="1174" d="M292 0Q208 0 208 84V1272Q208 1356 292 1356Q376 1356 376 1272V797L886 1324Q944 1386 1004 1326Q1066 1268 1006 1208L581 769L1082 146Q1133 79 1070 28Q1005 -25 952 40L463 646L376 556V84Q376 0 292 0Z" />
<glyph unicode="L" horiz-adv-x="1082" d="M292 0Q208 0 208 84V1272Q208 1356 292 1356Q376 1356 376 1272V168H930Q1014 168 1014 84Q1014 0 930 0H292Z" />
<glyph unicode="M" horiz-adv-x="1674" d="M292 0Q208 0 208 84V1272Q208 1356 292 1356Q347 1356 384 1302L856 592L820 586L1296 1302Q1330 1356 1398 1356Q1466 1356 1466 1272V84Q1466 0 1382 0Q1298 0 1298 84V1104L1350 1086L930 468Q893 414 828 414Q783
414 746 468L326 1086L376 1072V84Q376 0 292 0Z" />
<glyph unicode="N" horiz-adv-x="1514" d="M292 0Q208 0 208 84V1272Q208 1356 292 1356Q335 1356 376 1306L1180 270H1138V1272Q1138 1356 1222 1356Q1306 1356 1306 1272V84Q1306 0 1222 0Q1177 0 1138 50L334 1086H376V84Q376 0 292 0Z" />
<glyph unicode="O" horiz-adv-x="1456" d="M608 0Q379 0 270 109T160 448V910Q160 1141 270 1249T608 1356H848Q1078 1356 1187 1247T1296 908V448Q1296 219 1187 110T848 0H608ZM608 168H848Q955 168 1016 193T1102 280T1128 448V908Q1128 1014 1103 1075T1016
1162T848 1188H608Q502 1189 441 1164T354 1078T328 910V448Q328 341 353 280T440 194T608 168Z" />
<glyph unicode="P" horiz-adv-x="1226" d="M292 0Q208 0 208 84V1272Q208 1356 292 1356H760Q943 1356 1040 1259T1138 978V918Q1138 735 1041 638T760 540H376V84Q376 0 292 0ZM376 708H760Q874 708 922 756T970 918V978Q970 1091 922 1139T760 1188H376V708Z" />
<glyph unicode="Q" horiz-adv-x="1466" d="M1286 -44Q1307 -66 1307 -92T1280 -142Q1231 -188 1180 -140L836 224Q814 247 814 273T838 322Q888 369 940 320L1286 -44ZM608 0Q379 0 270 109T160 448V910Q160 1141 270 1249T608 1356H848Q1078 1356 1187 1247T1296
908V448Q1296 219 1187 110T848 0H608ZM608 168H848Q955 168 1016 193T1102 280T1128 448V908Q1128 1014 1103 1075T1016 1162T848 1188H608Q502 1189 441 1164T354 1078T328 910V448Q328 341 353 280T440 194T608 168Z" />
<glyph unicode="R" horiz-adv-x="1250" d="M1080 -4Q1047 -25 1017 -17T966 24L656 540H376V84Q376 0 292 0Q208 0 208 84V1272Q208 1356 292 1356H760Q943 1356 1040 1259T1138 978V918Q1138 759 1064 665T850 547L1112 110Q1150 40 1080 -4ZM376 708H760Q874
708 922 756T970 918V978Q970 1091 922 1139T760 1188H376V708Z" />
<glyph unicode="S" horiz-adv-x="1385" d="M547 0Q376 0 281 69T161 282Q157 326 179 348T243 370Q285 370 304 350T331 288Q346 219 395 194T547 168H835Q964 168 1010 214T1057 388Q1057 517 1009 564T835 612H587Q398 612 307 704T215 986Q215 1174 305 1265T585
1356H823Q982 1356 1072 1291T1187 1092Q1193 1049 1171 1027T1105 1004Q1065 1004 1045 1025T1019 1086Q1003 1145 958 1166T823 1188H585Q465 1188 424 1146T383 986Q383 868 425 824T587 780H835Q1032 780 1128 684T1225 388Q1225 189 1129 95T835 0H547Z" />
<glyph unicode="T" horiz-adv-x="1228" d="M614 0Q572 0 551 21T530 84V1186H142Q100 1186 79 1207T58 1270Q58 1312 79 1333T142 1354H1086Q1128 1354 1149 1333T1170 1270Q1170 1228 1149 1207T1086 1186H698V84Q698 44 677 22T614 0Z" />
<glyph unicode="U" horiz-adv-x="1532" d="M646 0Q417 0 308 109T198 448V1272Q198 1314 219 1335T282 1356Q324 1356 345 1335T366 1272V448Q366 341 391 280T478 194T646 168H886Q993 168 1054 193T1140 280T1166 448V1272Q1166 1314 1187 1335T1250 1356Q1292
1356 1313 1335T1334 1272V448Q1334 219 1225 110T886 0H646Z" />
<glyph unicode="V" horiz-adv-x="1286" d="M634 0Q582 0 552 66L58 1236Q43 1271 50 1298T96 1344Q178 1385 212 1302L679 196H621L1076 1302Q1109 1384 1192 1344Q1227 1326 1235 1299T1230 1236L732 66Q701 0 642 0H634Z" />
<glyph unicode="W" horiz-adv-x="1791" d="M499 0Q444 0 421 72L51 1244Q39 1282 62 1320T131 1358Q155 1358 177 1343T209 1294L535 256H491L801 1284Q812 1320 838 1338T893 1356Q923 1356 951 1338T989 1284L1299 256H1255L1581 1294Q1592 1327 1612 1341T1657
1356Q1701 1356 1727 1322T1739 1244L1369 72Q1345 0 1281 0H1277Q1210 0 1189 72L867 1114H911L587 72Q577 36 558 18T499 0Z" />
<glyph unicode="X" horiz-adv-x="1252" d="M172 18Q105 64 152 136L518 676L132 1220Q87 1286 154 1338Q223 1385 270 1316L628 814L988 1316Q1040 1383 1104 1334Q1172 1284 1124 1218L730 670L1108 138Q1155 69 1086 18Q1017 -29 970 40L622 530L290 38Q244
-27 172 18Z" />
<glyph unicode="Y" horiz-adv-x="1230" d="M605 0Q521 0 521 84V492L63 1222Q21 1294 89 1340Q161 1384 205 1314L605 672L1025 1314Q1046 1347 1076 1353T1139 1336Q1212 1291 1165 1222L689 492V84Q689 0 605 0Z" />
<glyph unicode="Z" horiz-adv-x="1378" d="M208 0Q126 0 126 84Q126 98 134 115T158 156L962 1208V1188H428Q364 1188 328 1169T278 1106Q269 1069 250 1049T190 1028Q148 1028 125 1051T108 1116Q132 1232 212 1294T428 1356H1096Q1180 1356 1180 1272Q1180 1256
1173 1238T1148 1196L354 160V168H946Q1014 168 1050 186T1098 250Q1109 288 1128 308T1188 328Q1230 328 1253 305T1270 240Q1221 0 946 0H208Z" />
<glyph unicode="[" horiz-adv-x="456" d="M198 -350Q128 -350 128 -280V1286Q128 1356 198 1356H366Q395 1356 415 1336T436 1286Q436 1258 416 1237T366 1216H268V-210H366Q395 -210 415 -230T436 -280Q436 -308 416 -329T366 -350H198Z" />
<glyph unicode="\" horiz-adv-x="644" d="M486 -306Q422 -306 404 -240L-4 1352Q-19 1399 4 1429T76 1460Q137 1460 158 1394L568 -198Q580 -246 557 -276T486 -306Z" />
<glyph unicode="]" horiz-adv-x="456" d="M258 -350H90Q62 -350 41 -329T20 -280Q20 -251 41 -231T90 -210H188V1216H90Q62 1216 41 1237T20 1286Q20 1315 41 1335T90 1356H258Q328 1356 328 1286V-280Q328 -350 258 -350Z" />
<glyph unicode="^" horiz-adv-x="856" d="M304 852Q297 834 279 821T238 808Q210 808 189 829T168 878Q168 884 169 891T172 906L330 1312Q354 1366 412 1366H444Q502 1366 526 1312L684 906Q686 899 687 892T688 878Q688 850 668 829T618 808Q596 808 578 821T552
852L428 1174L304 852Z" />
<glyph unicode="_" horiz-adv-x="934" d="M184 -168Q100 -168 100 -84Q100 0 184 0H690Q774 0 774 -84Q774 -168 690 -168H184Z" />
<glyph unicode="`" horiz-adv-x="500" d="M370 1046Q311 999 268 1054L122 1230Q74 1288 130 1332Q186 1379 232 1324L378 1148Q425 1092 370 1046Z" />
<glyph unicode="a" horiz-adv-x="1300" d="M520 0Q352 0 270 82T188 332Q188 500 269 582T520 664H943Q937 769 888 807T720 846H604Q504 846 455 833T386 784Q368 742 349 726T292 710Q250 710 226 733T212 796Q242 909 337 961T604 1014H720Q920 1014 1016 918T1112
622V84Q1112 0 1028 0Q944 0 944 84V129Q837 0 632 0H520ZM520 168H632Q706 168 771 181T882 231T944 334V496H520Q421 496 389 463T356 332Q356 233 388 201T520 168Z" />
<glyph unicode="b" horiz-adv-x="1316" d="M292 0Q208 0 208 84V1324Q208 1408 292 1408Q376 1408 376 1324V907Q428 960 506 987T688 1014H764Q964 1014 1060 918T1156 622V392Q1156 193 1060 97T764 0H688Q584 0 506 27T376 106V84Q376 0 292 0ZM688 168H764Q895
168 941 215T988 392V622Q988 753 941 799T764 846H688Q556 846 466 813T376 708V306Q376 236 466 202T688 168Z" />
<glyph unicode="c" horiz-adv-x="1202" d="M552 0Q353 0 257 96T160 392V624Q160 824 255 920T552 1014H716Q865 1014 950 964T1060 810Q1069 768 1046 745T978 722Q939 722 921 742T888 798Q873 825 833 835T716 846H552Q423 848 376 802T328 624V392Q328 262
375 215T552 168H716Q793 168 833 178T888 216Q903 254 921 273T980 292Q1022 292 1045 269T1060 204Q1036 101 951 51T716 0H552Z" />
<glyph unicode="d" horiz-adv-x="1296" d="M552 0Q353 0 257 96T160 392V622Q160 822 256 918T552 1014H940V1324Q940 1408 1024 1408Q1108 1408 1108 1324V84Q1108 0 1024 0Q940 0 940 84V98Q893 50 817 25T628 0H552ZM552 168H628Q760 168 850 202T940 306V846H552Q422
846 375 799T328 622V392Q328 262 375 215T552 168Z" />
<glyph unicode="e" horiz-adv-x="1268" d="M328 438V390Q328 261 375 215T552 168H716Q818 168 867 187T932 254Q943 292 962 312T1022 332Q1064 332 1086 310T1100 246Q1078 122 982 61T716 0H552Q353 0 257 96T160 390V622Q160 825 256 920T552 1014H716Q916
1014 1012 919T1108 622V522Q1108 438 1024 438H328ZM552 846Q422 848 375 801T328 622V606H940V622Q940 753 894 799T716 846H552Z" />
<glyph unicode="f" horiz-adv-x="772" d="M330 0Q246 0 246 84V846H172Q88 846 88 930Q88 1014 172 1014H246V1022Q246 1219 341 1313T632 1408Q704 1408 704 1324Q704 1240 632 1240Q506 1240 460 1195T414 1022V1014H620Q704 1014 704 930Q704 846 620 846H414V84Q414
0 330 0Z" />
<glyph unicode="g" horiz-adv-x="1296" d="M448 -400Q327 -400 258 -351T168 -202Q161 -160 183 -136T250 -112Q288 -112 305 -132T336 -194Q348 -216 373 -224T448 -232H820Q895 -232 917 -209T940 -112V121Q886 62 807 31T628 0H552Q353 0 257 96T160 390V622Q160
823 255 918T552 1014H716Q787 1014 843 993T940 929V930Q940 1014 1024 1014Q1108 1014 1108 930V-112Q1108 -259 1038 -329T820 -400H448ZM552 168H628Q760 168 850 201T940 306V706Q940 787 882 816T716 846H552Q423 846 376 800T328 622V390Q328 263 375 216T552
168Z" />
<glyph unicode="h" horiz-adv-x="1324" d="M292 0Q208 0 208 84V1324Q208 1408 292 1408Q376 1408 376 1324V897Q482 1014 688 1014H744Q944 1014 1040 918T1136 622V84Q1136 0 1052 0Q968 0 968 84V622Q968 753 921 799T744 846H688Q568 846 479 819T376 732V84Q376
0 292 0Z" />
<glyph unicode="i" horiz-adv-x="584" d="M264 1178Q169 1178 169 1274V1333Q169 1427 264 1427H322Q413 1427 413 1333V1274Q413 1178 322 1178H264ZM292 0Q208 0 208 84V930Q208 1014 292 1014Q376 1014 376 930V84Q376 0 292 0Z" />
<glyph unicode="j" horiz-adv-x="584" d="M266 1178Q171 1178 171 1274V1333Q171 1427 266 1427H324Q415 1427 415 1333V1274Q415 1178 324 1178H266ZM72 -400Q29 -400 10 -378T-10 -316Q-10 -275 11 -254T72 -232Q153 -232 180 -205T208 -96V930Q208 1014 292
1014Q376 1014 376 930V-96Q376 -250 302 -325T72 -400Z" />
<glyph unicode="k" horiz-adv-x="1016" d="M292 0Q208 0 208 84V1324Q208 1408 292 1408Q376 1408 376 1324V573L852 982Q916 1037 970 974Q1025 910 962 856L597 541L946 144Q1002 79 940 26Q876 -29 820 34L469 430L376 350V84Q376 0 292 0Z" />
<glyph unicode="l" horiz-adv-x="686" d="M510 0Q357 0 283 75T208 304V1324Q208 1408 292 1408Q376 1408 376 1324V304Q376 223 402 196T510 168Q596 168 596 84Q599 0 510 0Z" />
<glyph unicode="m" horiz-adv-x="1860" d="M1318 1014Q1507 1014 1589 925T1672 630V84Q1672 0 1588 0Q1504 0 1504 84V630Q1504 744 1461 795T1318 846H1236Q1122 846 1073 795T1024 630V84Q1024 0 940 0Q856 0 856 84V630Q856 744 813 795T670 846H588Q474 846
425 795T376 630V84Q376 0 292 0Q208 0 208 84V930Q208 1014 292 1014Q376 1014 376 930V884Q429 953 492 983T644 1014H670Q794 1014 865 980T973 868Q1026 947 1085 980T1236 1014H1318Z" />
<glyph unicode="n" horiz-adv-x="1324" d="M292 0Q208 0 208 84V930Q208 1014 292 1014Q376 1014 376 930V897Q482 1014 688 1014H744Q944 1014 1040 918T1136 622V84Q1136 0 1052 0Q968 0 968 84V622Q968 753 921 799T744 846H688Q568 846 479 819T376 732V84Q376
0 292 0Z" />
<glyph unicode="o" horiz-adv-x="1268" d="M552 0Q353 0 257 96T160 390V622Q160 823 256 918T552 1014H716Q916 1014 1012 918T1108 622V392Q1108 193 1012 97T716 0H552ZM328 390Q328 261 375 215T552 168H716Q847 168 893 215T940 392V622Q940 753 894 799T716
846H552Q465 846 417 827T348 759T328 622V390Z" />
<glyph unicode="p" horiz-adv-x="1316" d="M292 -400Q208 -400 208 -316V930Q208 1014 292 1014Q376 1014 376 930V905Q430 959 509 986T688 1014H764Q964 1014 1060 918T1156 622V392Q1156 193 1060 97T764 0H376V-316Q376 -400 292 -400ZM376 168H764Q895 168
941 215T988 392V622Q988 753 942 799T764 846H688Q563 846 472 816T376 721V168Z" />
<glyph unicode="q" horiz-adv-x="1296" d="M1024 -400Q940 -400 940 -316V0H552Q353 0 257 96T160 392V622Q160 822 256 918T552 1014H628Q740 1014 817 985T940 902V930Q940 1014 1024 1014Q1108 1014 1108 930V-316Q1108 -400 1024 -400ZM552 168H940V706Q940
778 850 812T628 846H552Q422 846 375 800T328 622V392Q328 262 375 215T552 168Z" />
<glyph unicode="r" horiz-adv-x="854" d="M292 0Q208 0 208 84V930Q208 1014 292 1014Q376 1014 376 930V852Q435 932 526 973T736 1014Q820 1014 820 930Q820 846 736 846Q563 846 472 782T376 613V84Q376 0 292 0Z" />
<glyph unicode="s" horiz-adv-x="1222" d="M446 0Q319 0 245 52T150 210Q143 252 166 276T232 300Q273 300 291 280T322 218Q334 188 362 178T446 168H774Q852 168 879 193T906 300Q906 380 879 406T774 432H452Q308 432 235 505T162 722Q162 869 233 941T452
1014H764Q999 1014 1042 816Q1050 774 1026 751T960 728Q921 728 902 748T872 806Q860 830 836 838T764 846H452Q376 846 353 823T330 722Q330 650 354 625T452 600H774Q924 600 999 525T1074 300Q1074 149 999 75T774 0H446Z" />
<glyph unicode="t" horiz-adv-x="838" d="M636 0Q438 0 344 94T250 384V846H152Q68 846 68 930Q68 1014 152 1014H250V1160Q250 1244 334 1244Q418 1244 418 1160V1014H648Q732 1014 732 930Q732 846 648 846H418V384Q418 257 464 213T636 168Q675 168 697 148T720
84Q720 0 636 0Z" />
<glyph unicode="u" horiz-adv-x="1324" d="M1032 1014Q1116 1014 1116 930V84Q1116 0 1032 0Q948 0 948 84V117Q842 0 636 0H580Q381 0 285 96T188 392V930Q188 1014 272 1014Q356 1014 356 930V392Q356 262 403 215T580 168H636Q756 168 845 196T948 282V930Q948
1014 1032 1014Z" />
<glyph unicode="v" horiz-adv-x="1052" d="M604 62Q591 31 568 16T508 0Q445 0 418 66L78 894Q43 974 122 1004Q197 1039 232 960L550 184H472L820 964Q837 997 866 1009T932 1004Q1006 969 972 892L604 62Z" />
<glyph unicode="w" horiz-adv-x="1502" d="M440 0Q374 0 352 68L74 904Q48 980 128 1008Q207 1035 234 954L460 281H447L660 954Q682 1020 756 1020Q826 1020 846 950L1045 288H1037L1268 956Q1297 1037 1376 1008Q1455 980 1426 900L1122 68Q1097 0 1028 0Q957
0 936 70L730 758H752L528 68Q518 35 495 18T440 0Z" />
<glyph unicode="x" horiz-adv-x="1066" d="M146 20Q80 71 128 138L424 555L178 876Q125 942 194 992Q259 1045 310 978L542 676L770 978Q820 1047 888 994Q954 944 904 876L647 538L952 140Q1001 73 938 22Q870 -31 820 38L531 415L264 40Q214 -29 146 20Z" />
<glyph unicode="y" horiz-adv-x="1360" d="M476 -400Q331 -400 260 -328T188 -110Q188 -26 272 -26Q356 -26 356 -110Q356 -185 378 -208T476 -232H864Q938 -232 961 -209T984 -110V144Q924 54 845 27T672 0H574Q376 0 282 94T188 384V930Q188 1014 272 1014Q356
1014 356 930V384Q356 258 401 213T574 168H672Q836 168 910 221T984 384V930Q984 1014 1068 1014Q1152 1014 1152 930V-110Q1152 -255 1080 -327T864 -400H476Z" />
<glyph unicode="z" horiz-adv-x="1090" d="M218 0Q134 0 134 84Q134 122 170 166L746 886L750 846H372Q323 846 298 838T260 806Q250 767 232 747T174 726Q131 726 108 749T92 814Q112 915 181 964T372 1014H862Q946 1014 946 930Q946 890 910 846L344 136L322
170L736 168Q783 168 808 177T846 210Q860 248 877 268T934 288Q978 288 1001 265T1016 200Q973 0 736 0H218Z" />
<glyph unicode="{" horiz-adv-x="716" d="M626 -350Q442 -350 365 -268T288 8V342L182 382Q128 406 128 464V520Q128 578 182 602L288 644V978Q288 1115 321 1198T428 1318T626 1356Q655 1356 675 1336T696 1286Q696 1258 676 1237T626 1216Q565 1216 527 1207T467
1172T437 1099T428 978V608Q428 544 374 526L204 468V516L374 460Q428 442 428 378V8Q428 -83 443 -130T500 -193T626 -210Q655 -210 675 -230T696 -280Q696 -308 676 -329T626 -350Z" />
<glyph unicode="|" horiz-adv-x="488" d="M328 -240Q328 -324 244 -324Q160 -324 160 -240V1348Q160 1432 244 1432Q328 1432 328 1348V-240Z" />
<glyph unicode="}" horiz-adv-x="716" d="M90 -350Q62 -350 41 -329T20 -280Q20 -251 41 -231T90 -210Q173 -210 215 -194T273 -130T288 8V378Q288 442 342 460L512 516V468L342 526Q288 544 288 608V978Q288 1052 280 1099T250 1171T190 1206T90 1216Q62 1216
41 1237T20 1286Q20 1315 41 1335T90 1356Q214 1356 288 1319T395 1198T428 978V644L534 602Q588 578 588 520V464Q588 406 534 382L428 342V8Q428 -185 352 -267T90 -350Z" />
<glyph unicode="~" horiz-adv-x="1218" d="M288 546Q268 526 242 526Q214 526 197 545T177 591T194 638Q251 695 288 725T357 765T432 776Q495 776 542 758T628 717T701 676T776 658Q812 658 841 678T926 756Q949 776 976 776Q1015 776 1033 738T1024 668Q955
593 899 560T776 526Q715 526 672 544T593 585T520 626T432 644Q410 644 395 639T356 614T288 546Z" />
<glyph unicode="&#xa0;" horiz-adv-x="628" />
<glyph unicode="&#xa1;" horiz-adv-x="540" d="M268 790Q352 790 352 706V-284Q352 -368 268 -368Q184 -368 184 -284V706Q184 790 268 790ZM292 1042Q372 1042 372 962V912Q372 834 292 834H244Q168 834 168 912V962Q168 1042 244 1042H292Z" />
<glyph unicode="&#xa2;" horiz-adv-x="1064" d="M504 98Q320 98 230 186T140 458V624Q140 809 229 898T504 986H616Q780 986 862 920T944 714Q944 680 920 655T860 630Q826 630 801 655T776 714Q776 774 746 796T616 818H504Q389 820 349 779T308 624V458Q308
347 347 307T504 266H616Q715 266 745 288T776 370Q776 405 801 429T860 454Q895 454 919 430T944 370Q944 231 862 165T616 98H504ZM560 -70Q490 -70 490 0V1082Q490 1152 560 1152Q630 1152 630 1082V0Q630 -70 560 -70Z" />
<glyph unicode="&#xa3;" horiz-adv-x="1184" d="M88 0V168Q139 168 155 192T172 300V860Q172 1091 281 1199T618 1308H660Q870 1308 969 1211T1068 900Q1068 816 984 816Q900 816 900 900Q900 995 879 1047T806 1119T660 1140H618Q513 1140 453 1115T366 1029T340
860V300Q340 264 337 231T324 168H1024Q1108 168 1108 84Q1108 0 1024 0H88ZM66 416Q-4 416 -4 486Q-4 556 66 556H716Q786 556 786 486Q786 416 716 416H66Z" />
<glyph unicode="&#xa4;" horiz-adv-x="1272" d="M296 242Q262 242 237 267T212 326Q212 359 236 386L326 474Q295 522 278 578T260 694Q260 754 277 809T326 912L240 1000Q214 1026 214 1060Q214 1095 239 1119T298 1144Q335 1144 358 1118L444 1032Q492 1062
547 1079T662 1096Q724 1096 779 1079T882 1032L972 1122Q996 1146 1030 1146Q1065 1146 1089 1122T1114 1062Q1114 1028 1090 1004L1000 914Q1032 866 1049 810T1066 694Q1066 634 1050 578T1002 474L1090 384Q1114 360 1114 326Q1114 292 1090 267T1030 242Q996
242 970 268L884 356Q836 325 780 308T662 290Q602 290 547 307T444 354L356 266Q329 242 296 242ZM662 458Q727 458 780 490T866 575T898 694Q898 758 866 811T781 896T662 928Q599 928 546 896T460 811T428 694Q428 629 460 576T545 490T662 458Z" />
<glyph unicode="&#xa5;" horiz-adv-x="1231" d="M700 84Q700 0 616 0Q532 0 532 84V486L64 1220Q19 1289 90 1336Q157 1385 204 1310L678 554H556L1024 1314Q1068 1386 1142 1340Q1207 1293 1168 1222L700 486V84ZM342 406Q314 406 300 420T286 462Q286 491 300
504T342 518H886Q915 518 928 505T942 462Q942 434 929 420T886 406H342ZM342 222Q314 222 300 236T286 278Q286 307 300 320T342 334H886Q915 334 928 321T942 278Q942 250 929 236T886 222H342Z" />
<glyph unicode="&#xa6;" horiz-adv-x="488" d="M328 -240Q328 -274 304 -299T244 -324Q210 -324 185 -299T160 -240V334Q160 369 185 393T244 418Q279 418 303 394T328 334V-240ZM328 778Q328 744 304 719T244 694Q210 694 185 719T160 778V1348Q160 1383 185
1407T244 1432Q279 1432 303 1408T328 1348V778Z" />
<glyph unicode="&#xa7;" horiz-adv-x="1144" d="M964 564Q964 435 891 368T680 300Q647 299 625 309T602 334Q602 367 624 389T680 412Q751 412 779 444T808 564Q808 632 780 666T666 730L468 800Q347 842 288 913T228 1092Q228 1205 296 1263T492 1322H688Q948
1322 948 1060Q948 1029 925 1006T870 982Q839 982 816 1005T792 1060Q792 1125 772 1145T688 1166H492Q428 1166 406 1150T384 1092Q384 1037 413 1006T518 948L716 878Q848 832 906 758T964 564ZM462 -180Q314 -180 241 -107T168 114Q168 146 191 169T246 192Q278
192 301 169T324 114Q324 32 352 4T462 -24H690Q773 -24 800 4T828 114Q828 151 819 173T775 214T668 256L420 336Q279 381 220 454T160 656Q160 788 234 852T462 916L540 882Q540 849 518 827T462 804Q377 804 347 774T316 656Q316 605 327 575T371 524T466 484L714
404Q817 371 876 334T959 245T984 114Q984 -34 912 -107T690 -180H462Z" />
<glyph unicode="&#xa8;" horiz-adv-x="738" d="M164 1162Q84 1162 84 1242V1292Q84 1370 164 1370H212Q288 1370 288 1292V1242Q288 1162 212 1162H164ZM498 1162Q418 1162 418 1242V1292Q418 1370 498 1370H546Q622 1370 622 1292V1242Q622 1162 546 1162H498Z" />
<glyph unicode="&#xa9;" horiz-adv-x="1636" d="M1476 670Q1476 479 1391 331T1158 99T818 14Q627 14 479 98T245 331T160 670Q160 861 245 1009T478 1243T818 1328Q1009 1328 1157 1243T1391 1010T1476 670ZM300 670Q300 517 366 401T548 220T818 154Q971 154
1088 219T1270 401T1336 670Q1336 823 1271 940T1088 1122T818 1188Q665 1188 549 1123T366 940T300 670ZM770 292Q622 292 549 364T476 584V750Q476 900 549 972T770 1044H868Q972 1044 1038 1012T1126 914Q1135 880 1118 860T1056 840Q1023 840 1012 855T980
898Q964 901 937 902T868 904H770Q680 904 648 874T616 750V584Q616 494 647 463T770 432H868Q910 432 937 434T980 438Q1000 467 1011 482T1056 498Q1097 498 1117 478T1126 422Q1101 358 1037 325T868 292H770Z" />
<glyph unicode="&#xaa;" horiz-adv-x="948" d="M368 596Q248 596 188 657T128 836Q128 958 189 1018T368 1078H673Q670 1144 642 1167T538 1190H426Q374 1190 343 1187T300 1170Q269 1130 257 1121T218 1112Q181 1112 160 1132T150 1190Q195 1336 426 1336H538Q681
1336 750 1267T820 1054V668Q820 596 746 596Q674 596 674 668V691Q614 596 478 596H368ZM368 742H478Q562 742 618 756T674 808V932H368Q310 932 292 914T274 836Q274 778 292 760T368 742Z" />
<glyph unicode="&#xab;" horiz-adv-x="1362" d="M1104 214Q1076 214 1060 230L688 538Q626 588 688 638L1060 946Q1076 962 1104 962Q1133 962 1153 942T1174 892Q1174 876 1166 863T1146 838L844 588L1146 338Q1158 328 1166 315T1174 284Q1174 256 1154 235T1104
214ZM634 214Q606 214 590 230L218 538Q156 588 218 638L590 946Q606 962 634 962Q663 962 683 942T704 892Q704 876 696 863T676 838L374 588L676 338Q688 328 696 315T704 284Q704 256 684 235T634 214Z" />
<glyph unicode="&#xac;" horiz-adv-x="1218" d="M1042 472Q1042 447 1022 428T976 408Q951 408 932 427T912 472V638H240Q215 638 196 657T176 702Q176 728 195 747T240 766H976Q1042 766 1042 702V472Z" />
<glyph unicode="&#xad;" horiz-adv-x="1028" d="M238 470Q210 470 189 491T168 540Q168 569 189 589T238 610H790Q819 610 839 590T860 540Q860 512 840 491T790 470H238Z" />
<glyph unicode="&#xae;" horiz-adv-x="1636" d="M1476 672Q1476 481 1391 333T1158 99T818 14Q627 14 479 99T245 332T160 672Q160 863 245 1011T478 1245T818 1330Q1009 1330 1157 1245T1391 1012T1476 672ZM300 672Q300 519 366 403T548 220T818 154Q971 154
1088 220T1270 402T1336 672Q1336 825 1271 942T1088 1124T818 1190Q665 1190 549 1125T366 942T300 672ZM714 390Q714 320 644 320Q574 320 574 390V976Q574 1046 644 1046H822Q926 1046 983 989T1040 828V798Q1040 655 938 602L1040 426Q1074 362 1010 330Q951
301 914 360L792 578H714V390ZM714 718H822Q866 718 883 735T900 798V828Q900 873 883 889T822 906H714V718Z" />
<glyph unicode="&#xaf;" horiz-adv-x="874" d="M184 1126Q100 1126 100 1210Q100 1294 184 1294H690Q774 1294 774 1210Q774 1126 690 1126H184Z" />
<glyph unicode="&#xb0;" horiz-adv-x="578" d="M266 878Q187 878 144 921T100 1044V1188Q100 1268 143 1311T266 1354H312Q392 1354 435 1311T478 1188V1044Q478 965 435 922T312 878H266ZM212 1044Q212 1013 223 1002T266 990H312Q344 990 355 1001T366 1044V1188Q366
1220 355 1231T312 1242H266Q235 1242 224 1231T212 1188V1044Z" />
<glyph unicode="&#xb1;" horiz-adv-x="1218" d="M558 970Q558 1005 576 1022T628 1040Q663 1040 680 1023T698 970V426Q698 392 681 374T628 356Q594 356 576 374T558 426V970ZM238 636Q168 636 168 706Q168 776 238 776H980Q1050 776 1050 706Q1050 636 980 636H238ZM238
166Q168 166 168 236Q168 306 238 306H980Q1050 306 1050 236Q1050 166 980 166H238Z" />
<glyph unicode="&#xb2;" horiz-adv-x="747" d="M559 596H193Q157 596 135 615T113 674Q113 773 148 835T235 936T337 1006Q414 1054 440 1076T467 1134Q467 1172 460 1180T413 1188H313Q292 1188 278 1188T255 1182Q224 1142 210 1129T167 1116Q128 1116 106 1138T93
1200Q133 1344 313 1344H413Q623 1344 623 1134Q623 1062 593 1016T516 937T421 874Q366 840 332 814T281 752H559Q639 752 639 674Q639 596 559 596Z" />
<glyph unicode="&#xb3;" horiz-adv-x="831" d="M351 602Q166 602 129 748Q120 789 142 810T203 832Q238 832 248 819T289 764Q298 760 312 759T351 758H463Q514 758 526 772T539 832Q539 882 527 894T463 906H421Q343 906 343 986Q343 1064 421 1064H463Q695 1064
695 832Q695 602 463 602H351ZM457 988V1064Q495 1064 510 1082T525 1126Q525 1173 513 1183T459 1194H355Q337 1194 325 1193T305 1190Q280 1163 267 1145T221 1126Q173 1126 153 1148T141 1208Q177 1350 355 1350H459Q570 1350 625 1297T681 1154Q681 1078 626
1032T457 988Z" />
<glyph unicode="&#xb4;" horiz-adv-x="494" d="M124 1046Q69 1092 116 1148L262 1324Q308 1379 364 1332Q420 1288 372 1230L226 1054Q183 999 124 1046Z" />
<glyph unicode="&#xb5;" horiz-adv-x="1406" d="M1116 266Q1116 199 1137 182T1230 168Q1277 170 1296 151T1316 84Q1316 0 1230 0Q1145 -1 1087 32T986 120Q932 63 844 30T636 -4H580Q511 -4 455 22T356 106V-72Q356 -124 334 -154T272 -184Q188 -184 188 -100V930Q188
1014 272 1014Q356 1014 356 930V388Q356 258 403 211T580 164H636Q768 164 858 196T948 304V930Q948 1014 1032 1014Q1116 1014 1116 930V266Z" />
<glyph unicode="&#xb6;" horiz-adv-x="1152" d="M684 -326Q684 -354 664 -375T614 -396Q586 -396 565 -375T544 -326V552H442Q270 552 179 642T88 904V962Q88 1135 179 1225T442 1316H874Q944 1316 944 1246V-326Q944 -354 924 -375T874 -396Q846 -396 825 -375T804
-326V1176H684V-326Z" />
<glyph unicode="&#xb7;" horiz-adv-x="540" d="M248 500Q168 500 168 580V630Q168 708 248 708H296Q372 708 372 630V580Q372 500 296 500H248Z" />
<glyph unicode="&#xb8;" horiz-adv-x="628" d="M294 -428Q100 -428 100 -234Q100 -164 170 -164Q240 -164 240 -234Q240 -270 249 -279T294 -288Q353 -288 370 -271T388 -194Q388 -180 382 -171T348 -144Q330 -133 305 -112T261 -57T242 30Q242 100 312 100Q382
100 382 30Q382 12 389 2T426 -30Q453 -48 490 -85T528 -194Q528 -311 470 -369T294 -428Z" />
<glyph unicode="&#xb9;" horiz-adv-x="614" d="M370 596Q286 596 286 680V1088L316 1104L250 1040Q192 982 132 1042Q72 1105 134 1160L290 1314Q319 1341 340 1348T394 1356Q454 1356 454 1300V680Q454 596 370 596Z" />
<glyph unicode="&#xba;" horiz-adv-x="860" d="M364 596Q219 596 146 669T72 888V1008Q72 1155 145 1227T364 1300H496Q642 1300 715 1227T788 1008V890Q788 743 715 670T496 596H364ZM364 764H496Q573 764 596 788T620 890V1008Q620 1083 597 1107T496 1132H364Q288
1131 264 1108T240 1008V888Q240 812 264 788T364 764Z" />
<glyph unicode="&#xbb;" horiz-adv-x="1356" d="M722 214Q694 214 673 235T652 284Q652 301 660 314T680 338L982 588L680 838Q668 849 660 862T652 892Q652 921 673 941T722 962Q750 962 766 946L1138 638Q1201 588 1138 538L766 230Q750 214 722 214ZM258 214Q230
214 209 235T188 284Q188 301 196 314T216 338L518 588L216 838Q204 849 196 862T188 892Q188 921 209 941T258 962Q286 962 302 946L674 638Q737 588 674 538L302 230Q286 214 258 214Z" />
<glyph unicode="&#xbc;" horiz-adv-x="1638" d="M370 596Q286 596 286 680V1088L316 1104L250 1040Q192 982 132 1042Q72 1105 134 1160L290 1314Q319 1341 340 1348T394 1356Q454 1356 454 1300V680Q454 596 370 596ZM350 -40Q316 -40 291 -15T266 44Q266 58
270 72T282 96L1204 1316Q1231 1350 1272 1350Q1307 1350 1331 1326T1356 1266Q1356 1253 1352 1239T1340 1214L418 -6Q391 -40 350 -40ZM1364 4Q1286 4 1286 82L1290 604L1346 572L1042 216L1030 300H1512Q1590 300 1590 220Q1590 142 1512 142H986Q908 142 908
220Q908 254 940 298L1284 716Q1304 739 1326 751T1378 764Q1446 764 1446 686L1442 82Q1442 4 1364 4Z" />
<glyph unicode="&#xbd;" horiz-adv-x="1674" d="M370 596Q286 596 286 680V1088L316 1104L250 1040Q192 982 132 1042Q72 1105 134 1160L290 1314Q319 1341 340 1348T394 1356Q454 1356 454 1300V680Q454 596 370 596ZM350 -40Q316 -40 291 -15T266 44Q266 58
270 72T282 96L1204 1316Q1231 1350 1272 1350Q1307 1350 1331 1326T1356 1266Q1356 1253 1352 1239T1340 1214L418 -6Q391 -40 350 -40ZM1473 0H1107Q1071 0 1049 19T1027 78Q1027 177 1062 239T1149 340T1251 410Q1328 458 1354 480T1381 538Q1381 576 1374 584T1327
592H1227Q1206 592 1192 592T1169 586Q1138 546 1124 533T1081 520Q1042 520 1020 542T1007 604Q1047 748 1227 748H1327Q1537 748 1537 538Q1537 466 1507 420T1430 341T1335 278Q1280 244 1246 218T1195 156H1473Q1553 156 1553 78Q1553 0 1473 0Z" />
<glyph unicode="&#xbe;" horiz-adv-x="1858" d="M351 602Q166 602 129 748Q120 789 142 810T203 832Q238 832 248 819T289 764Q298 760 312 759T351 758H463Q514 758 526 772T539 832Q539 882 527 894T463 906H421Q343 906 343 986Q343 1064 421 1064H463Q695
1064 695 832Q695 602 463 602H351ZM457 988V1064Q495 1064 510 1082T525 1126Q525 1173 513 1183T459 1194H355Q337 1194 325 1193T305 1190Q280 1163 267 1145T221 1126Q173 1126 153 1148T141 1208Q177 1350 355 1350H459Q570 1350 625 1297T681 1154Q681 1078
626 1032T457 988ZM567 -40Q533 -40 508 -15T483 44Q483 58 487 72T499 96L1421 1316Q1448 1350 1489 1350Q1524 1350 1548 1326T1573 1266Q1573 1253 1569 1239T1557 1214L635 -6Q608 -40 567 -40ZM1584 4Q1506 4 1506 82L1510 604L1566 572L1262 216L1250 300H1732Q1810
300 1810 220Q1810 142 1732 142H1206Q1128 142 1128 220Q1128 254 1160 298L1504 716Q1524 739 1546 751T1598 764Q1666 764 1666 686L1662 82Q1662 4 1584 4Z" />
<glyph unicode="&#xbf;" horiz-adv-x="1028" d="M558 688Q642 688 642 604Q642 498 606 434T518 333T424 272Q380 246 350 224T304 170T288 82Q288 -36 330 -78T490 -120H624Q743 -120 784 -77T826 82Q826 166 910 166Q994 166 994 82Q994 -104 902 -196T624 -288H490Q303
-288 212 -197T120 82Q120 188 156 252T244 353T338 414Q382 440 412 462T458 516T474 604Q474 688 558 688ZM582 1020Q662 1020 662 940V890Q662 812 582 812H534Q458 812 458 890V940Q458 1020 534 1020H582Z" />
<glyph unicode="&#xc0;" horiz-adv-x="1332" d="M144 8Q64 39 96 118L572 1290Q602 1356 666 1356H670Q735 1353 758 1290L1242 118Q1274 39 1196 8Q1117 -23 1086 54L978 316H355L252 54Q221 -24 144 8ZM421 484H909L660 1090L421 484ZM756 1444Q697 1397 654
1452L508 1628Q460 1686 516 1730Q572 1777 618 1722L764 1546Q811 1490 756 1444Z" />
<glyph unicode="&#xc1;" horiz-adv-x="1332" d="M656 1444Q601 1490 648 1546L794 1722Q840 1777 896 1730Q952 1686 904 1628L758 1452Q715 1397 656 1444ZM144 8Q64 39 96 118L572 1290Q602 1356 666 1356H670Q735 1353 758 1290L1242 118Q1274 39 1196 8Q1117
-23 1086 54L978 316H355L252 54Q221 -24 144 8ZM421 484H909L660 1090L421 484Z" />
<glyph unicode="&#xc2;" horiz-adv-x="1332" d="M144 8Q64 39 96 118L572 1290Q602 1356 666 1356H670Q735 1353 758 1290L1242 118Q1274 39 1196 8Q1117 -23 1086 54L978 316H355L252 54Q221 -24 144 8ZM421 484H909L660 1090L421 484ZM426 1438Q395 1438 373
1460T350 1514Q350 1557 386 1580L570 1732Q612 1768 664 1768H670Q722 1768 764 1732L950 1580Q986 1555 986 1514Q986 1483 963 1461T910 1438Q878 1438 854 1462L668 1616H666L482 1462Q458 1438 426 1438Z" />
<glyph unicode="&#xc3;" horiz-adv-x="1332" d="M144 8Q64 39 96 118L572 1290Q602 1356 666 1356H670Q735 1353 758 1290L1242 118Q1274 39 1196 8Q1117 -23 1086 54L978 316H355L252 54Q221 -24 144 8ZM421 484H909L660 1090L421 484ZM812 1468Q746 1468 708
1498T646 1550Q621 1576 607 1585T573 1594Q531 1594 515 1568T494 1531Q481 1503 463 1487T402 1486Q363 1500 360 1522T366 1571Q392 1642 445 1685T571 1728Q639 1728 678 1698T742 1644Q768 1619 780 1612T810 1604Q838 1604 848 1616T870 1654Q884 1686 902
1701T958 1706Q1004 1693 1005 1667T1000 1622Q976 1549 929 1509T812 1468Z" />
<glyph unicode="&#xc4;" horiz-adv-x="1332" d="M144 8Q64 39 96 118L572 1290Q602 1356 666 1356H670Q735 1353 758 1290L1242 118Q1274 39 1196 8Q1117 -23 1086 54L978 316H355L252 54Q221 -24 144 8ZM421 484H909L660 1090L421 484ZM480 1504Q400 1504 400
1584V1634Q400 1712 480 1712H528Q604 1712 604 1634V1584Q604 1504 528 1504H480ZM814 1504Q734 1504 734 1584V1634Q734 1712 814 1712H862Q938 1712 938 1634V1584Q938 1504 862 1504H814Z" />
<glyph unicode="&#xc5;" horiz-adv-x="1332" d="M144 8Q64 39 96 118L572 1290Q602 1356 666 1356H670Q735 1353 758 1290L1242 118Q1274 39 1196 8Q1117 -23 1086 54L978 316H355L252 54Q221 -24 144 8ZM421 484H909L660 1090L421 484ZM672 1458Q602 1458 560
1499T518 1612Q518 1684 560 1725T672 1766Q744 1766 786 1725T828 1612Q828 1540 786 1499T672 1458ZM672 1572Q702 1572 707 1577T712 1612Q712 1642 707 1647T672 1652Q642 1652 637 1647T632 1612Q632 1582 637 1577T672 1572Z" />
<glyph unicode="&#xc6;" horiz-adv-x="1720" d="M942 0Q858 0 858 84V316H402L248 48Q205 -29 134 14Q62 58 102 128L766 1298Q784 1327 808 1341T868 1356H1524Q1608 1356 1608 1272Q1608 1188 1524 1188H1026V768H1288Q1372 768 1372 684Q1372 600 1288 600H1026V168H1524Q1608
168 1608 84Q1608 0 1524 0H942ZM498 484H858V1149H864L498 484Z" />
<glyph unicode="&#xc7;" horiz-adv-x="1392" d="M608 0Q379 0 270 109T160 448V908Q160 1139 269 1248T606 1356H848Q1036 1356 1135 1279T1250 1034Q1256 992 1234 970T1170 948Q1094 948 1082 1032Q1072 1124 1019 1156T848 1188H606Q500 1189 440 1164T354
1078T328 908V448Q328 341 353 280T440 194T608 168H848Q965 168 1018 200T1082 324Q1094 408 1170 408Q1212 408 1234 386T1250 322Q1234 154 1135 77T848 0H608ZM778 -428Q584 -428 584 -234Q584 -164 654 -164Q724 -164 724 -234Q724 -270 733 -279T778 -288Q837
-288 854 -271T872 -194Q872 -180 866 -171T832 -144Q814 -133 789 -112T745 -57T726 30Q726 100 796 100Q866 100 866 30Q866 12 873 2T910 -30Q937 -48 974 -85T1012 -194Q1012 -311 954 -369T778 -428Z" />
<glyph unicode="&#xc8;" horiz-adv-x="1206" d="M292 0Q208 0 208 84V1272Q208 1356 292 1356H1010Q1094 1356 1094 1272Q1094 1188 1010 1188H376V768H774Q858 768 858 684Q858 600 774 600H376V168H1010Q1094 168 1094 84Q1094 0 1010 0H292ZM768 1444Q709 1397
666 1452L520 1628Q472 1686 528 1730Q584 1777 630 1722L776 1546Q823 1490 768 1444Z" />
<glyph unicode="&#xc9;" horiz-adv-x="1206" d="M636 1480Q581 1526 628 1582L774 1758Q820 1813 876 1766Q932 1722 884 1664L738 1488Q695 1433 636 1480ZM292 0Q208 0 208 84V1272Q208 1356 292 1356H1010Q1094 1356 1094 1272Q1094 1188 1010 1188H376V768H774Q858
768 858 684Q858 600 774 600H376V168H1010Q1094 168 1094 84Q1094 0 1010 0H292Z" />
<glyph unicode="&#xca;" horiz-adv-x="1206" d="M292 0Q208 0 208 84V1272Q208 1356 292 1356H1010Q1094 1356 1094 1272Q1094 1188 1010 1188H376V768H774Q858 768 858 684Q858 600 774 600H376V168H1010Q1094 168 1094 84Q1094 0 1010 0H292ZM438 1438Q407 1438
385 1460T362 1514Q362 1557 398 1580L582 1732Q624 1768 676 1768H682Q734 1768 776 1732L962 1580Q998 1555 998 1514Q998 1483 975 1461T922 1438Q890 1438 866 1462L680 1616H678L494 1462Q470 1438 438 1438Z" />
<glyph unicode="&#xcb;" horiz-adv-x="1206" d="M292 0Q208 0 208 84V1272Q208 1356 292 1356H1010Q1094 1356 1094 1272Q1094 1188 1010 1188H376V768H774Q858 768 858 684Q858 600 774 600H376V168H1010Q1094 168 1094 84Q1094 0 1010 0H292ZM492 1504Q412 1504
412 1584V1634Q412 1712 492 1712H540Q616 1712 616 1634V1584Q616 1504 540 1504H492ZM826 1504Q746 1504 746 1584V1634Q746 1712 826 1712H874Q950 1712 950 1634V1584Q950 1504 874 1504H826Z" />
<glyph unicode="&#xcc;" horiz-adv-x="584" d="M292 0Q249 0 229 20T208 84V1270Q208 1314 228 1334T292 1354Q336 1354 356 1334T376 1270V84Q376 41 356 21T292 0ZM380 1444Q321 1397 278 1452L132 1628Q84 1686 140 1730Q196 1777 242 1722L388 1546Q435 1490
380 1444Z" />
<glyph unicode="&#xcd;" horiz-adv-x="584" d="M248 1480Q193 1526 240 1582L386 1758Q432 1813 488 1766Q544 1722 496 1664L350 1488Q307 1433 248 1480ZM292 0Q249 0 229 20T208 84V1270Q208 1314 228 1334T292 1354Q336 1354 356 1334T376 1270V84Q376 41
356 21T292 0Z" />
<glyph unicode="&#xce;" horiz-adv-x="584" d="M292 0Q249 0 229 20T208 84V1270Q208 1314 228 1334T292 1354Q336 1354 356 1334T376 1270V84Q376 41 356 21T292 0ZM104 1462Q76 1462 55 1483T34 1532Q34 1546 39 1558T54 1580L200 1726Q235 1764 288 1764H300Q353
1764 388 1726L534 1580Q545 1570 549 1558T554 1532Q554 1504 534 1483T484 1462Q451 1462 434 1482L306 1624H282L154 1482Q134 1462 104 1462Z" />
<glyph unicode="&#xcf;" horiz-adv-x="584" d="M292 0Q249 0 229 20T208 84V1270Q208 1314 228 1334T292 1354Q336 1354 356 1334T376 1270V84Q376 41 356 21T292 0ZM104 1504Q24 1504 24 1584V1634Q24 1712 104 1712H152Q228 1712 228 1634V1584Q228 1504 152
1504H104ZM438 1504Q358 1504 358 1584V1634Q358 1712 438 1712H486Q562 1712 562 1634V1584Q562 1504 486 1504H438Z" />
<glyph unicode="&#xd0;" horiz-adv-x="1442" d="M292 0Q208 0 208 84V1272Q208 1356 292 1356H774Q1035 1356 1158 1233T1282 848V508Q1282 247 1160 124T774 0H292ZM376 168H774Q902 168 976 199T1082 305T1114 508V848Q1114 975 1083 1049T977 1156T774 1188H376V168ZM124
606Q54 606 54 676Q54 746 124 746H648Q718 746 718 676Q718 606 648 606H124Z" />
<glyph unicode="&#xd1;" horiz-adv-x="1514" d="M292 0Q208 0 208 84V1272Q208 1356 292 1356Q335 1356 376 1306L1180 270H1138V1272Q1138 1356 1222 1356Q1306 1356 1306 1272V84Q1306 0 1222 0Q1177 0 1138 50L334 1086H376V84Q376 0 292 0ZM894 1468Q828 1468
790 1498T728 1550Q703 1576 689 1585T655 1594Q613 1594 597 1568T576 1531Q563 1503 545 1487T484 1486Q445 1500 442 1522T448 1571Q474 1642 527 1685T653 1728Q721 1728 760 1698T824 1644Q850 1619 862 1612T892 1604Q920 1604 930 1616T952 1654Q966 1686
984 1701T1040 1706Q1086 1693 1087 1667T1082 1622Q1058 1549 1011 1509T894 1468Z" />
<glyph unicode="&#xd2;" horiz-adv-x="1456" d="M608 0Q379 0 270 109T160 448V910Q160 1141 270 1249T608 1356H848Q1078 1356 1187 1247T1296 908V448Q1296 219 1187 110T848 0H608ZM608 168H848Q955 168 1016 193T1102 280T1128 448V908Q1128 1014 1103 1075T1016
1162T848 1188H608Q502 1189 441 1164T354 1078T328 910V448Q328 341 353 280T440 194T608 168ZM816 1444Q757 1397 714 1452L568 1628Q520 1686 576 1730Q632 1777 678 1722L824 1546Q871 1490 816 1444Z" />
<glyph unicode="&#xd3;" horiz-adv-x="1456" d="M684 1480Q629 1526 676 1582L822 1758Q868 1813 924 1766Q980 1722 932 1664L786 1488Q743 1433 684 1480ZM608 0Q379 0 270 109T160 448V910Q160 1141 270 1249T608 1356H848Q1078 1356 1187 1247T1296 908V448Q1296
219 1187 110T848 0H608ZM608 168H848Q955 168 1016 193T1102 280T1128 448V908Q1128 1014 1103 1075T1016 1162T848 1188H608Q502 1189 441 1164T354 1078T328 910V448Q328 341 353 280T440 194T608 168Z" />
<glyph unicode="&#xd4;" horiz-adv-x="1456" d="M608 0Q379 0 270 109T160 448V910Q160 1141 270 1249T608 1356H848Q1078 1356 1187 1247T1296 908V448Q1296 219 1187 110T848 0H608ZM608 168H848Q955 168 1016 193T1102 280T1128 448V908Q1128 1014 1103 1075T1016
1162T848 1188H608Q502 1189 441 1164T354 1078T328 910V448Q328 341 353 280T440 194T608 168ZM486 1438Q455 1438 433 1460T410 1514Q410 1557 446 1580L630 1732Q672 1768 724 1768H730Q782 1768 824 1732L1010 1580Q1046 1555 1046 1514Q1046 1483 1023 1461T970
1438Q938 1438 914 1462L728 1616H726L542 1462Q518 1438 486 1438Z" />
<glyph unicode="&#xd5;" horiz-adv-x="1456" d="M608 0Q379 0 270 109T160 448V910Q160 1141 270 1249T608 1356H848Q1078 1356 1187 1247T1296 908V448Q1296 219 1187 110T848 0H608ZM608 168H848Q955 168 1016 193T1102 280T1128 448V908Q1128 1014 1103 1075T1016
1162T848 1188H608Q502 1189 441 1164T354 1078T328 910V448Q328 341 353 280T440 194T608 168ZM872 1468Q806 1468 768 1498T706 1550Q681 1576 667 1585T633 1594Q591 1594 575 1568T554 1531Q541 1503 523 1487T462 1486Q423 1500 420 1522T426 1571Q452 1642
505 1685T631 1728Q699 1728 738 1698T802 1644Q828 1619 840 1612T870 1604Q898 1604 908 1616T930 1654Q944 1686 962 1701T1018 1706Q1064 1693 1065 1667T1060 1622Q1036 1549 989 1509T872 1468Z" />
<glyph unicode="&#xd6;" horiz-adv-x="1456" d="M608 0Q379 0 270 109T160 448V910Q160 1141 270 1249T608 1356H848Q1078 1356 1187 1247T1296 908V448Q1296 219 1187 110T848 0H608ZM608 168H848Q955 168 1016 193T1102 280T1128 448V908Q1128 1014 1103 1075T1016
1162T848 1188H608Q502 1189 441 1164T354 1078T328 910V448Q328 341 353 280T440 194T608 168ZM540 1504Q460 1504 460 1584V1634Q460 1712 540 1712H588Q664 1712 664 1634V1584Q664 1504 588 1504H540ZM874 1504Q794 1504 794 1584V1634Q794 1712 874 1712H922Q998
1712 998 1634V1584Q998 1504 922 1504H874Z" />
<glyph unicode="&#xd7;" horiz-adv-x="1218" d="M833 970Q883 1019 932 970Q982 920 932 871L408 346Q358 297 309 346Q259 396 309 445L833 970ZM288 877Q239 927 288 976Q338 1026 387 976L912 452Q961 402 912 353Q862 303 813 353L288 877Z" />
<glyph unicode="&#xd8;" horiz-adv-x="1456" d="M608 0Q379 0 270 109T160 448V910Q160 1141 270 1249T608 1356H848Q1078 1356 1187 1247T1296 908V448Q1296 219 1187 110T848 0H608ZM608 168H848Q955 168 1016 193T1102 280T1128 448V908Q1128 1014 1103 1075T1016
1162T848 1188H608Q502 1189 441 1164T354 1078T328 910V448Q328 341 353 280T440 194T608 168ZM256 -46Q189 -4 228 62L1038 1386Q1081 1453 1146 1412Q1212 1370 1170 1304L364 -20Q321 -87 256 -46Z" />
<glyph unicode="&#xd9;" horiz-adv-x="1532" d="M646 0Q417 0 308 109T198 448V1272Q198 1314 219 1335T282 1356Q324 1356 345 1335T366 1272V448Q366 341 391 280T478 194T646 168H886Q993 168 1054 193T1140 280T1166 448V1272Q1166 1314 1187 1335T1250 1356Q1292
1356 1313 1335T1334 1272V448Q1334 219 1225 110T886 0H646ZM854 1444Q795 1397 752 1452L606 1628Q558 1686 614 1730Q670 1777 716 1722L862 1546Q909 1490 854 1444Z" />
<glyph unicode="&#xda;" horiz-adv-x="1532" d="M722 1480Q667 1526 714 1582L860 1758Q906 1813 962 1766Q1018 1722 970 1664L824 1488Q781 1433 722 1480ZM646 0Q417 0 308 109T198 448V1272Q198 1314 219 1335T282 1356Q324 1356 345 1335T366 1272V448Q366
341 391 280T478 194T646 168H886Q993 168 1054 193T1140 280T1166 448V1272Q1166 1314 1187 1335T1250 1356Q1292 1356 1313 1335T1334 1272V448Q1334 219 1225 110T886 0H646Z" />
<glyph unicode="&#xdb;" horiz-adv-x="1532" d="M646 0Q417 0 308 109T198 448V1272Q198 1314 219 1335T282 1356Q324 1356 345 1335T366 1272V448Q366 341 391 280T478 194T646 168H886Q993 168 1054 193T1140 280T1166 448V1272Q1166 1314 1187 1335T1250 1356Q1292
1356 1313 1335T1334 1272V448Q1334 219 1225 110T886 0H646ZM524 1438Q493 1438 471 1460T448 1514Q448 1557 484 1580L668 1732Q710 1768 762 1768H768Q820 1768 862 1732L1048 1580Q1084 1555 1084 1514Q1084 1483 1061 1461T1008 1438Q976 1438 952 1462L766
1616H764L580 1462Q556 1438 524 1438Z" />
<glyph unicode="&#xdc;" horiz-adv-x="1532" d="M646 0Q417 0 308 109T198 448V1272Q198 1314 219 1335T282 1356Q324 1356 345 1335T366 1272V448Q366 341 391 280T478 194T646 168H886Q993 168 1054 193T1140 280T1166 448V1272Q1166 1314 1187 1335T1250 1356Q1292
1356 1313 1335T1334 1272V448Q1334 219 1225 110T886 0H646ZM578 1504Q498 1504 498 1584V1634Q498 1712 578 1712H626Q702 1712 702 1634V1584Q702 1504 626 1504H578ZM912 1504Q832 1504 832 1584V1634Q832 1712 912 1712H960Q1036 1712 1036 1634V1584Q1036
1504 960 1504H912Z" />
<glyph unicode="&#xdd;" horiz-adv-x="1230" d="M569 1480Q514 1526 561 1582L707 1758Q753 1813 809 1766Q865 1722 817 1664L671 1488Q628 1433 569 1480ZM605 0Q521 0 521 84V492L63 1222Q21 1294 89 1340Q161 1384 205 1314L605 672L1025 1314Q1046 1347 1076
1353T1139 1336Q1212 1291 1165 1222L689 492V84Q689 0 605 0Z" />
<glyph unicode="&#xde;" horiz-adv-x="1130" d="M292 0Q208 0 208 84V1272Q208 1356 292 1356Q376 1356 376 1272V1150H664Q847 1150 944 1053T1042 772V712Q1042 529 945 432T664 334H376V84Q376 0 292 0ZM376 502H664Q778 502 826 550T874 712V772Q874 886 826
934T664 982H376V502Z" />
<glyph unicode="&#xdf;" horiz-adv-x="1174" d="M292 0Q208 0 208 84V1038Q208 1226 299 1317T578 1408Q764 1408 855 1317T946 1040Q946 967 916 901T796 790Q946 756 1006 671T1066 452V388Q1066 189 971 95T678 0H556Q472 0 472 84Q472 168 556 168H678Q807
168 852 213T898 388V452Q898 581 853 626T678 672H662Q578 672 578 758Q578 835 660 844Q729 856 753 901T778 1040Q778 1157 737 1198T578 1240Q460 1240 418 1199T376 1038V84Q376 0 292 0Z" />
<glyph unicode="&#xe0;" horiz-adv-x="1300" d="M520 0Q352 0 270 82T188 332Q188 500 269 582T520 664H943Q937 769 888 807T720 846H604Q504 846 455 833T386 784Q368 742 349 726T292 710Q250 710 226 733T212 796Q242 909 337 961T604 1014H720Q920 1014 1016
918T1112 622V84Q1112 0 1028 0Q944 0 944 84V129Q837 0 632 0H520ZM520 168H632Q706 168 771 181T882 231T944 334V496H520Q421 496 389 463T356 332Q356 233 388 201T520 168ZM730 1102Q671 1055 628 1110L482 1286Q434 1344 490 1388Q546 1435 592 1380L738
1204Q785 1148 730 1102Z" />
<glyph unicode="&#xe1;" horiz-adv-x="1300" d="M598 1138Q543 1184 590 1240L736 1416Q782 1471 838 1424Q894 1380 846 1322L700 1146Q657 1091 598 1138ZM520 0Q352 0 270 82T188 332Q188 500 269 582T520 664H943Q937 769 888 807T720 846H604Q504 846 455
833T386 784Q368 742 349 726T292 710Q250 710 226 733T212 796Q242 909 337 961T604 1014H720Q920 1014 1016 918T1112 622V84Q1112 0 1028 0Q944 0 944 84V129Q837 0 632 0H520ZM520 168H632Q706 168 771 181T882 231T944 334V496H520Q421 496 389 463T356 332Q356
233 388 201T520 168Z" />
<glyph unicode="&#xe2;" horiz-adv-x="1300" d="M520 0Q352 0 270 82T188 332Q188 500 269 582T520 664H943Q937 769 888 807T720 846H604Q504 846 455 833T386 784Q368 742 349 726T292 710Q250 710 226 733T212 796Q242 909 337 961T604 1014H720Q920 1014 1016
918T1112 622V84Q1112 0 1028 0Q944 0 944 84V129Q837 0 632 0H520ZM520 168H632Q706 168 771 181T882 231T944 334V496H520Q421 496 389 463T356 332Q356 233 388 201T520 168ZM454 1120Q426 1120 405 1141T384 1190Q384 1204 389 1216T404 1238L550 1384Q585
1422 638 1422H650Q703 1422 738 1384L884 1238Q895 1228 899 1216T904 1190Q904 1162 884 1141T834 1120Q801 1120 784 1140L656 1282H632L504 1140Q484 1120 454 1120Z" />
<glyph unicode="&#xe3;" horiz-adv-x="1300" d="M520 0Q352 0 270 82T188 332Q188 500 269 582T520 664H943Q937 769 888 807T720 846H604Q504 846 455 833T386 784Q368 742 349 726T292 710Q250 710 226 733T212 796Q242 909 337 961T604 1014H720Q920 1014 1016
918T1112 622V84Q1112 0 1028 0Q944 0 944 84V129Q837 0 632 0H520ZM520 168H632Q706 168 771 181T882 231T944 334V496H520Q421 496 389 463T356 332Q356 233 388 201T520 168ZM786 1126Q720 1126 682 1156T620 1208Q595 1234 581 1243T547 1252Q505 1252 489
1226T468 1189Q455 1161 437 1145T376 1144Q337 1158 334 1180T340 1229Q366 1300 419 1343T545 1386Q613 1386 652 1356T716 1302Q742 1277 754 1270T784 1262Q812 1262 822 1274T844 1312Q858 1344 876 1359T932 1364Q978 1351 979 1325T974 1280Q950 1207 903
1167T786 1126Z" />
<glyph unicode="&#xe4;" horiz-adv-x="1300" d="M520 0Q352 0 270 82T188 332Q188 500 269 582T520 664H943Q937 769 888 807T720 846H604Q504 846 455 833T386 784Q368 742 349 726T292 710Q250 710 226 733T212 796Q242 909 337 961T604 1014H720Q920 1014 1016
918T1112 622V84Q1112 0 1028 0Q944 0 944 84V129Q837 0 632 0H520ZM520 168H632Q706 168 771 181T882 231T944 334V496H520Q421 496 389 463T356 332Q356 233 388 201T520 168ZM454 1162Q374 1162 374 1242V1292Q374 1370 454 1370H502Q578 1370 578 1292V1242Q578
1162 502 1162H454ZM788 1162Q708 1162 708 1242V1292Q708 1370 788 1370H836Q912 1370 912 1292V1242Q912 1162 836 1162H788Z" />
<glyph unicode="&#xe5;" horiz-adv-x="1300" d="M520 0Q352 0 270 82T188 332Q188 500 269 582T520 664H943Q937 769 888 807T720 846H604Q504 846 455 833T386 784Q368 742 349 726T292 710Q250 710 226 733T212 796Q242 909 337 961T604 1014H720Q920 1014 1016
918T1112 622V84Q1112 0 1028 0Q944 0 944 84V129Q837 0 632 0H520ZM520 168H632Q706 168 771 181T882 231T944 334V496H520Q421 496 389 463T356 332Q356 233 388 201T520 168ZM646 1116Q576 1116 534 1157T492 1270Q492 1342 534 1383T646 1424Q718 1424 760
1383T802 1270Q802 1198 760 1157T646 1116ZM646 1230Q676 1230 681 1235T686 1270Q686 1300 681 1305T646 1310Q616 1310 611 1305T606 1270Q606 1240 611 1235T646 1230Z" />
<glyph unicode="&#xe6;" horiz-adv-x="1952" d="M1286 -44Q1070 -44 972 128Q847 -40 592 -40H520Q352 -40 270 42T188 292Q188 445 270 524T520 604H904Q894 720 845 759T680 798H604Q474 798 427 781T372 732Q365 698 344 673T288 648Q254 648 229 673T204 732Q204
837 310 901T604 966H680Q890 966 988 812Q1083 967 1288 964H1408Q1605 964 1698 857T1792 520Q1792 436 1706 436H1072V352Q1072 219 1118 172T1286 124H1408Q1537 124 1580 151T1624 260Q1624 295 1649 319T1708 344Q1743 344 1767 320T1792 260Q1792 98 1697
27T1408 -44H1286ZM520 128H592Q756 128 830 181T904 344V436H520Q421 436 389 406T356 292Q356 193 388 161T520 128ZM1074 604H1618Q1606 717 1558 756T1408 796H1288Q1177 798 1130 759T1074 604Z" />
<glyph unicode="&#xe7;" horiz-adv-x="1202" d="M552 0Q353 0 257 96T160 392V624Q160 824 255 920T552 1014H716Q865 1014 950 964T1060 810Q1069 768 1046 745T978 722Q939 722 921 742T888 798Q873 825 833 835T716 846H552Q423 848 376 802T328 624V392Q328
262 375 215T552 168H716Q793 168 833 178T888 216Q903 254 921 273T980 292Q1022 292 1045 269T1060 204Q1036 101 951 51T716 0H552ZM686 -428Q492 -428 492 -234Q492 -164 562 -164Q632 -164 632 -234Q632 -270 641 -279T686 -288Q745 -288 762 -271T780 -194Q780
-180 774 -171T740 -144Q722 -133 697 -112T653 -57T634 30Q634 100 704 100Q774 100 774 30Q774 12 781 2T818 -30Q845 -48 882 -85T920 -194Q920 -311 862 -369T686 -428Z" />
<glyph unicode="&#xe8;" horiz-adv-x="1268" d="M328 438V390Q328 261 375 215T552 168H716Q818 168 867 187T932 254Q943 292 962 312T1022 332Q1064 332 1086 310T1100 246Q1078 122 982 61T716 0H552Q353 0 257 96T160 390V622Q160 825 256 920T552 1014H716Q916
1014 1012 919T1108 622V522Q1108 438 1024 438H328ZM552 846Q422 848 375 801T328 622V606H940V622Q940 753 894 799T716 846H552ZM724 1102Q665 1055 622 1110L476 1286Q428 1344 484 1388Q540 1435 586 1380L732 1204Q779 1148 724 1102Z" />
<glyph unicode="&#xe9;" horiz-adv-x="1268" d="M592 1138Q537 1184 584 1240L730 1416Q776 1471 832 1424Q888 1380 840 1322L694 1146Q651 1091 592 1138ZM328 438V390Q328 261 375 215T552 168H716Q818 168 867 187T932 254Q943 292 962 312T1022 332Q1064
332 1086 310T1100 246Q1078 122 982 61T716 0H552Q353 0 257 96T160 390V622Q160 825 256 920T552 1014H716Q916 1014 1012 919T1108 622V522Q1108 438 1024 438H328ZM552 846Q422 848 375 801T328 622V606H940V622Q940 753 894 799T716 846H552Z" />
<glyph unicode="&#xea;" horiz-adv-x="1268" d="M328 438V390Q328 261 375 215T552 168H716Q818 168 867 187T932 254Q943 292 962 312T1022 332Q1064 332 1086 310T1100 246Q1078 122 982 61T716 0H552Q353 0 257 96T160 390V622Q160 825 256 920T552 1014H716Q916
1014 1012 919T1108 622V522Q1108 438 1024 438H328ZM552 846Q422 848 375 801T328 622V606H940V622Q940 753 894 799T716 846H552ZM448 1120Q420 1120 399 1141T378 1190Q378 1204 383 1216T398 1238L544 1384Q579 1422 632 1422H644Q697 1422 732 1384L878 1238Q889
1228 893 1216T898 1190Q898 1162 878 1141T828 1120Q795 1120 778 1140L650 1282H626L498 1140Q478 1120 448 1120Z" />
<glyph unicode="&#xeb;" horiz-adv-x="1268" d="M328 438V390Q328 261 375 215T552 168H716Q818 168 867 187T932 254Q943 292 962 312T1022 332Q1064 332 1086 310T1100 246Q1078 122 982 61T716 0H552Q353 0 257 96T160 390V622Q160 825 256 920T552 1014H716Q916
1014 1012 919T1108 622V522Q1108 438 1024 438H328ZM552 846Q422 848 375 801T328 622V606H940V622Q940 753 894 799T716 846H552ZM448 1162Q368 1162 368 1242V1292Q368 1370 448 1370H496Q572 1370 572 1292V1242Q572 1162 496 1162H448ZM782 1162Q702 1162
702 1242V1292Q702 1370 782 1370H830Q906 1370 906 1292V1242Q906 1162 830 1162H782Z" />
<glyph unicode="&#xec;" horiz-adv-x="584" d="M292 0Q208 0 208 84V930Q208 1014 292 1014Q376 1014 376 930V84Q376 0 292 0ZM378 1102Q319 1055 276 1110L130 1286Q82 1344 138 1388Q194 1435 240 1380L386 1204Q433 1148 378 1102Z" />
<glyph unicode="&#xed;" horiz-adv-x="584" d="M246 1138Q191 1184 238 1240L384 1416Q430 1471 486 1424Q542 1380 494 1322L348 1146Q305 1091 246 1138ZM292 0Q208 0 208 84V930Q208 1014 292 1014Q376 1014 376 930V84Q376 0 292 0Z" />
<glyph unicode="&#xee;" horiz-adv-x="584" d="M292 0Q208 0 208 84V930Q208 1014 292 1014Q376 1014 376 930V84Q376 0 292 0ZM358 1120Q330 1120 309 1141T288 1190Q288 1204 293 1216T308 1238L454 1384Q489 1422 542 1422H554Q607 1422 642 1384L788 1238Q799
1228 803 1216T808 1190Q808 1162 788 1141T738 1120Q705 1120 688 1140L560 1282H536L408 1140Q388 1120 358 1120Z" />
<glyph unicode="&#xef;" horiz-adv-x="584" d="M292 0Q208 0 208 84V930Q208 1014 292 1014Q376 1014 376 930V84Q376 0 292 0ZM102 1162Q22 1162 22 1242V1292Q22 1370 102 1370H150Q226 1370 226 1292V1242Q226 1162 150 1162H102ZM436 1162Q356 1162 356 1242V1292Q356
1370 436 1370H484Q560 1370 560 1292V1242Q560 1162 484 1162H436Z" />
<glyph unicode="&#xf0;" horiz-adv-x="1268" d="M552 0Q353 0 257 95T160 390V622Q160 823 256 918T552 1014H716Q778 1014 829 992T924 926Q913 1024 893 1077T844 1153T776 1184L310 1302Q227 1324 248 1406Q269 1488 350 1466L820 1348Q967 1314 1034 1157T1108
678V392Q1108 191 1012 96T716 0H552ZM552 168H716Q847 168 893 215T940 392V602Q940 695 923 748T858 823T716 846H552Q465 845 417 826T348 759T328 622V390Q328 261 375 215T552 168ZM520 1116Q468 1064 418 1118Q366 1173 420 1220L714 1498Q766 1550 816 1496Q866
1443 814 1394L520 1116Z" />
<glyph unicode="&#xf1;" horiz-adv-x="1324" d="M292 0Q208 0 208 84V930Q208 1014 292 1014Q376 1014 376 930V897Q482 1014 688 1014H744Q944 1014 1040 918T1136 622V84Q1136 0 1052 0Q968 0 968 84V622Q968 753 921 799T744 846H688Q568 846 479 819T376 732V84Q376
0 292 0ZM858 1126Q792 1126 754 1156T692 1208Q667 1234 653 1243T619 1252Q577 1252 561 1226T540 1189Q527 1161 509 1145T448 1144Q409 1158 406 1180T412 1229Q438 1300 491 1343T617 1386Q685 1386 724 1356T788 1302Q814 1277 826 1270T856 1262Q884 1262
894 1274T916 1312Q930 1344 948 1359T1004 1364Q1050 1351 1051 1325T1046 1280Q1022 1207 975 1167T858 1126Z" />
<glyph unicode="&#xf2;" horiz-adv-x="1268" d="M552 0Q353 0 257 96T160 390V622Q160 823 256 918T552 1014H716Q916 1014 1012 918T1108 622V392Q1108 193 1012 97T716 0H552ZM328 390Q328 261 375 215T552 168H716Q847 168 893 215T940 392V622Q940 753 894
799T716 846H552Q465 846 417 827T348 759T328 622V390ZM722 1102Q663 1055 620 1110L474 1286Q426 1344 482 1388Q538 1435 584 1380L730 1204Q777 1148 722 1102Z" />
<glyph unicode="&#xf3;" horiz-adv-x="1268" d="M590 1138Q535 1184 582 1240L728 1416Q774 1471 830 1424Q886 1380 838 1322L692 1146Q649 1091 590 1138ZM552 0Q353 0 257 96T160 390V622Q160 823 256 918T552 1014H716Q916 1014 1012 918T1108 622V392Q1108
193 1012 97T716 0H552ZM328 390Q328 261 375 215T552 168H716Q847 168 893 215T940 392V622Q940 753 894 799T716 846H552Q465 846 417 827T348 759T328 622V390Z" />
<glyph unicode="&#xf4;" horiz-adv-x="1268" d="M552 0Q353 0 257 96T160 390V622Q160 823 256 918T552 1014H716Q916 1014 1012 918T1108 622V392Q1108 193 1012 97T716 0H552ZM328 390Q328 261 375 215T552 168H716Q847 168 893 215T940 392V622Q940 753 894
799T716 846H552Q465 846 417 827T348 759T328 622V390ZM446 1120Q418 1120 397 1141T376 1190Q376 1204 381 1216T396 1238L542 1384Q577 1422 630 1422H642Q695 1422 730 1384L876 1238Q887 1228 891 1216T896 1190Q896 1162 876 1141T826 1120Q793 1120 776
1140L648 1282H624L496 1140Q476 1120 446 1120Z" />
<glyph unicode="&#xf5;" horiz-adv-x="1268" d="M552 0Q353 0 257 96T160 390V622Q160 823 256 918T552 1014H716Q916 1014 1012 918T1108 622V392Q1108 193 1012 97T716 0H552ZM328 390Q328 261 375 215T552 168H716Q847 168 893 215T940 392V622Q940 753 894
799T716 846H552Q465 846 417 827T348 759T328 622V390ZM778 1126Q712 1126 674 1156T612 1208Q587 1234 573 1243T539 1252Q497 1252 481 1226T460 1189Q447 1161 429 1145T368 1144Q329 1158 326 1180T332 1229Q358 1300 411 1343T537 1386Q605 1386 644 1356T708
1302Q734 1277 746 1270T776 1262Q804 1262 814 1274T836 1312Q850 1344 868 1359T924 1364Q970 1351 971 1325T966 1280Q942 1207 895 1167T778 1126Z" />
<glyph unicode="&#xf6;" horiz-adv-x="1268" d="M552 0Q353 0 257 96T160 390V622Q160 823 256 918T552 1014H716Q916 1014 1012 918T1108 622V392Q1108 193 1012 97T716 0H552ZM328 390Q328 261 375 215T552 168H716Q847 168 893 215T940 392V622Q940 753 894
799T716 846H552Q465 846 417 827T348 759T328 622V390ZM446 1162Q366 1162 366 1242V1292Q366 1370 446 1370H494Q570 1370 570 1292V1242Q570 1162 494 1162H446ZM780 1162Q700 1162 700 1242V1292Q700 1370 780 1370H828Q904 1370 904 1292V1242Q904 1162 828
1162H780Z" />
<glyph unicode="&#xf7;" horiz-adv-x="1218" d="M238 660Q168 660 168 730Q168 800 238 800H980Q1050 800 1050 730Q1050 660 980 660H238ZM584 298Q504 298 504 378V428Q504 506 584 506H632Q708 506 708 428V378Q708 298 632 298H584ZM584 958Q504 958 504 1038V1088Q504
1166 584 1166H632Q708 1166 708 1088V1038Q708 958 632 958H584Z" />
<glyph unicode="&#xf8;" horiz-adv-x="1268" d="M234 -122Q206 -101 200 -78T212 -24L298 114L328 142L814 914L824 942L898 1062Q939 1126 1002 1084Q1056 1042 1020 986L952 876L922 842L456 100L436 60L338 -98Q298 -165 234 -122ZM552 0Q353 0 257 96T160
390V622Q160 823 256 918T552 1014H716Q916 1014 1012 918T1108 622V392Q1108 193 1012 97T716 0H552ZM328 390Q328 261 375 215T552 168H716Q847 168 893 215T940 392V622Q940 753 894 799T716 846H552Q465 846 417 827T348 759T328 622V390Z" />
<glyph unicode="&#xf9;" horiz-adv-x="1324" d="M1032 1014Q1116 1014 1116 930V84Q1116 0 1032 0Q948 0 948 84V117Q842 0 636 0H580Q381 0 285 96T188 392V930Q188 1014 272 1014Q356 1014 356 930V392Q356 262 403 215T580 168H636Q756 168 845 196T948 282V930Q948
1014 1032 1014ZM744 1102Q685 1055 642 1110L496 1286Q448 1344 504 1388Q560 1435 606 1380L752 1204Q799 1148 744 1102Z" />
<glyph unicode="&#xfa;" horiz-adv-x="1324" d="M1032 1014Q1116 1014 1116 930V84Q1116 0 1032 0Q948 0 948 84V117Q842 0 636 0H580Q381 0 285 96T188 392V930Q188 1014 272 1014Q356 1014 356 930V392Q356 262 403 215T580 168H636Q756 168 845 196T948 282V930Q948
1014 1032 1014ZM612 1138Q557 1184 604 1240L750 1416Q796 1471 852 1424Q908 1380 860 1322L714 1146Q671 1091 612 1138Z" />
<glyph unicode="&#xfb;" horiz-adv-x="1324" d="M1032 1014Q1116 1014 1116 930V84Q1116 0 1032 0Q948 0 948 84V117Q842 0 636 0H580Q381 0 285 96T188 392V930Q188 1014 272 1014Q356 1014 356 930V392Q356 262 403 215T580 168H636Q756 168 845 196T948 282V930Q948
1014 1032 1014ZM468 1120Q440 1120 419 1141T398 1190Q398 1204 403 1216T418 1238L564 1384Q599 1422 652 1422H664Q717 1422 752 1384L898 1238Q909 1228 913 1216T918 1190Q918 1162 898 1141T848 1120Q815 1120 798 1140L670 1282H646L518 1140Q498 1120 468
1120Z" />
<glyph unicode="&#xfc;" horiz-adv-x="1324" d="M1032 1014Q1116 1014 1116 930V84Q1116 0 1032 0Q948 0 948 84V117Q842 0 636 0H580Q381 0 285 96T188 392V930Q188 1014 272 1014Q356 1014 356 930V392Q356 262 403 215T580 168H636Q756 168 845 196T948 282V930Q948
1014 1032 1014ZM468 1162Q388 1162 388 1242V1292Q388 1370 468 1370H516Q592 1370 592 1292V1242Q592 1162 516 1162H468ZM802 1162Q722 1162 722 1242V1292Q722 1370 802 1370H850Q926 1370 926 1292V1242Q926 1162 850 1162H802Z" />
<glyph unicode="&#xfd;" horiz-adv-x="1360" d="M626 1138Q571 1184 618 1240L764 1416Q810 1471 866 1424Q922 1380 874 1322L728 1146Q685 1091 626 1138ZM476 -400Q331 -400 260 -328T188 -110Q188 -26 272 -26Q356 -26 356 -110Q356 -185 378 -208T476 -232H864Q938
-232 961 -209T984 -110V144Q924 54 845 27T672 0H574Q376 0 282 94T188 384V930Q188 1014 272 1014Q356 1014 356 930V384Q356 258 401 213T574 168H672Q836 168 910 221T984 384V930Q984 1014 1068 1014Q1152 1014 1152 930V-110Q1152 -255 1080 -327T864 -400H476Z"
/>
<glyph unicode="&#xfe;" horiz-adv-x="1316" d="M292 -400Q246 -400 227 -381T208 -316V1288Q208 1335 227 1353T292 1372Q339 1372 357 1354T376 1288V872Q497 1008 688 1008H764Q964 1008 1060 912T1156 616V394Q1156 195 1060 99T764 2H376V-316Q376 -362 358
-381T292 -400ZM376 170H764Q895 170 941 217T988 394V616Q988 747 942 793T764 840H688Q525 840 451 787T376 624V170Z" />
<glyph unicode="&#xff;" horiz-adv-x="1360" d="M476 -400Q331 -400 260 -328T188 -110Q188 -26 272 -26Q356 -26 356 -110Q356 -185 378 -208T476 -232H864Q938 -232 961 -209T984 -110V144Q924 54 845 27T672 0H574Q376 0 282 94T188 384V930Q188 1014 272 1014Q356
1014 356 930V384Q356 258 401 213T574 168H672Q836 168 910 221T984 384V930Q984 1014 1068 1014Q1152 1014 1152 930V-110Q1152 -255 1080 -327T864 -400H476ZM482 1162Q402 1162 402 1242V1292Q402 1370 482 1370H530Q606 1370 606 1292V1242Q606 1162 530 1162H482ZM816
1162Q736 1162 736 1242V1292Q736 1370 816 1370H864Q940 1370 940 1292V1242Q940 1162 864 1162H816Z" />
<glyph unicode="&#x2013;" horiz-adv-x="1218" d="M238 472Q168 472 168 542Q168 612 238 612H980Q1050 612 1050 542Q1050 472 980 472H238Z" />
<glyph unicode="&#x2014;" horiz-adv-x="1706" d="M238 468Q210 468 189 489T168 538Q168 567 189 587T238 608H1468Q1497 608 1517 588T1538 538Q1538 510 1518 489T1468 468H238Z" />
<glyph unicode="&#x2018;" horiz-adv-x="542" d="M323 1430Q355 1430 382 1407T391 1338L287 1064L155 1118L259 1390Q265 1408 283 1419T323 1430ZM275 1166Q355 1166 355 1086V1036Q355 958 275 958H227Q151 958 151 1036V1086Q151 1166 227 1166H275Z" />
<glyph unicode="&#x2019;" horiz-adv-x="501" d="M161 948Q130 948 103 971T93 1040L197 1314L329 1260L225 988Q219 970 201 959T161 948ZM209 1212Q129 1212 129 1292V1342Q129 1420 209 1420H257Q333 1420 333 1342V1292Q333 1212 257 1212H209Z" />
<glyph unicode="&#x201a;" horiz-adv-x="501" d="M161 -264Q130 -264 103 -241T93 -172L197 102L329 48L225 -224Q219 -242 201 -253T161 -264ZM209 0Q129 0 129 80V130Q129 208 209 208H257Q333 208 333 130V80Q333 0 257 0H209Z" />
<glyph unicode="&#x201c;" horiz-adv-x="822" d="M603 1430Q635 1430 662 1407T671 1338L567 1064L435 1118L539 1390Q545 1408 563 1419T603 1430ZM555 1166Q635 1166 635 1086V1036Q635 958 555 958H507Q431 958 431 1036V1086Q431 1166 507 1166H555ZM323 1430Q355
1430 382 1407T391 1338L287 1064L155 1118L259 1390Q265 1408 283 1419T323 1430ZM275 1166Q355 1166 355 1086V1036Q355 958 275 958H227Q151 958 151 1036V1086Q151 1166 227 1166H275Z" />
<glyph unicode="&#x201d;" horiz-adv-x="801" d="M461 948Q430 948 403 971T393 1040L497 1314L629 1260L525 988Q519 970 501 959T461 948ZM509 1212Q429 1212 429 1292V1342Q429 1420 509 1420H557Q633 1420 633 1342V1292Q633 1212 557 1212H509ZM161 948Q130
948 103 971T93 1040L197 1314L329 1260L225 988Q219 970 201 959T161 948ZM209 1212Q129 1212 129 1292V1342Q129 1420 209 1420H257Q333 1420 333 1342V1292Q333 1212 257 1212H209Z" />
<glyph unicode="&#x201e;" horiz-adv-x="801" d="M461 -264Q430 -264 403 -241T393 -172L497 102L629 48L525 -224Q519 -242 501 -253T461 -264ZM509 0Q429 0 429 80V130Q429 208 509 208H557Q633 208 633 130V80Q633 0 557 0H509ZM161 -264Q130 -264 103 -241T93
-172L197 102L329 48L225 -224Q219 -242 201 -253T161 -264ZM209 0Q129 0 129 80V130Q129 208 209 208H257Q333 208 333 130V80Q333 0 257 0H209Z" />
<glyph unicode="&#x2022;" horiz-adv-x="744" d="M328 364Q168 364 168 524V624Q168 780 328 780H424Q576 780 576 624V524Q576 364 424 364H328Z" />
<glyph unicode="&#x2039;" horiz-adv-x="892" d="M634 214Q606 214 590 230L218 538Q156 588 218 638L590 946Q606 962 634 962Q663 962 683 942T704 892Q704 876 696 863T676 838L374 588L676 338Q688 328 696 315T704 284Q704 256 684 235T634 214Z" />
<glyph unicode="&#x203a;" horiz-adv-x="892" d="M258 214Q230 214 209 235T188 284Q188 301 196 314T216 338L518 588L216 838Q204 849 196 862T188 892Q188 921 209 941T258 962Q286 962 302 946L674 638Q737 588 674 538L302 230Q286 214 258 214Z" />
</font>
</defs>
</svg>
